<?xml version="1.0" encoding="UTF-8"?> <svg xmlns="http://www.w3.org/2000/svg" width="192" height="211" viewBox="0 0 192 211" fill="none"><path d="M51.6069 95.0978H16.3134V169.05H89.0509V181.998H1V0.727661H88.4284V13.8H16.3134V82.1499H51.6069V95.0978Z" fill="#F8F7F6"></path><path d="M112.783 90.5627C112.783 91.5818 113.197 92.0914 114.025 92.0914C115.522 92.0914 117.513 89.5913 119.997 84.5912C120.093 84.4001 120.172 84.209 120.236 84.0179C120.331 83.8268 120.459 83.6994 120.618 83.6357C120.809 83.572 120.937 83.6198 121 83.7791C121.064 83.9065 121.032 84.1294 120.905 84.4479C118.357 90.3716 115.777 93.3335 113.166 93.3335C112.306 93.3335 111.621 92.9513 111.111 92.187C110.602 91.4226 110.347 90.6742 110.347 89.9417C110.347 89.1773 110.427 88.4767 110.586 87.8397C108.739 90.8971 107.146 92.6328 105.809 93.0469C105.426 93.2061 105.044 93.2857 104.662 93.2857C104.312 93.2857 103.961 93.238 103.611 93.1424C102.051 92.7284 101.27 91.4863 101.27 89.4162C101.27 88.0149 101.621 86.4702 102.321 84.7823C103.054 83.0625 104.073 81.4223 105.379 79.8617C106.684 78.3012 108.261 77.2502 110.108 76.7088C110.777 76.4858 111.557 76.3744 112.449 76.3744C113.373 76.3744 114.392 76.661 115.506 77.2343C117.672 73.1577 119.519 69.3837 121.048 65.9123C121.494 64.8613 121.924 64.1925 122.338 63.9058C122.784 63.5874 123.182 63.4281 123.532 63.4281C123.914 63.4281 124.137 63.4281 124.201 63.4281C124.297 63.4281 124.599 63.4759 125.109 63.5714C125.65 63.6351 126.064 63.651 126.351 63.6192C125.618 64.288 123.675 67.5365 120.523 73.3647C116.51 80.8172 114.089 85.7855 113.261 88.2696C112.943 89.1932 112.783 89.9576 112.783 90.5627ZM115.124 77.9986C114.71 77.5846 114.121 77.3776 113.357 77.3776C112.624 77.3776 111.589 77.9349 110.251 79.0496C108.118 80.8331 106.35 83.0306 104.949 85.6422C104.025 87.362 103.563 88.7792 103.563 89.8939C103.563 90.4035 103.659 90.8653 103.85 91.2793C104.073 91.6933 104.407 91.9003 104.853 91.9003C105.936 91.9003 107.274 90.7856 108.866 88.5563C110.458 86.3269 112.545 82.8077 115.124 77.9986ZM122.347 85.9766C121.901 87.0594 121.678 88.2696 121.678 89.6073C121.678 90.499 121.869 91.2156 122.251 91.757C122.665 92.2666 123.239 92.5214 123.971 92.5214C126.869 92.5214 129.497 89.7984 131.853 84.3523C132.076 83.8428 132.347 83.6198 132.666 83.6835C132.793 83.7154 132.857 83.795 132.857 83.9224C132.857 84.0498 132.49 84.8937 131.758 86.4543C131.057 87.983 130.341 89.2251 129.608 90.1805C127.984 92.4099 125.977 93.5246 123.589 93.5246C122.315 93.5246 121.232 93.1106 120.34 92.2825C119.449 91.4545 119.003 90.3238 119.003 88.8907C119.003 87.4575 119.337 85.9447 120.006 84.3523C120.707 82.7281 121.646 81.2312 122.825 79.8617C124.003 78.4604 125.356 77.4413 126.885 76.8043C127.618 76.4858 128.318 76.3266 128.987 76.3266C129.656 76.3266 130.277 76.5177 130.85 76.8999C131.392 77.3457 131.662 77.8394 131.662 78.3808C131.662 80.2917 130.516 82.123 128.223 83.8746C127.522 84.416 126.535 84.9097 125.261 85.3555C123.987 85.7696 123.016 85.9766 122.347 85.9766ZM130.373 78.333C130.373 77.6961 130.118 77.3776 129.608 77.3776C128.716 77.3776 127.363 78.4763 125.548 80.6739C124.465 82.0115 123.509 83.5084 122.681 85.1645C123.223 85.1645 124.003 84.9734 125.022 84.5912C126.073 84.209 126.981 83.6994 127.745 83.0625C129.497 81.5656 130.373 79.9891 130.373 78.333ZM140.791 82.3459C141.906 81.0083 142.463 79.8777 142.463 78.9541C142.463 78.0305 142.081 77.5687 141.317 77.5687C139.82 77.5687 138.116 78.9381 136.205 81.6771C135.6 82.537 135.011 83.6676 134.438 85.0689C133.864 86.4702 133.578 87.7442 133.578 88.8907C133.578 90.0054 133.801 90.913 134.247 91.6137C134.724 92.3144 135.441 92.6647 136.396 92.6647C137.384 92.6647 138.291 92.4417 139.119 91.9959C139.947 91.5182 140.728 90.7856 141.46 89.7984C142.225 88.7792 142.798 87.9352 143.18 87.2664C143.562 86.5976 144.088 85.5944 144.756 84.2568C144.979 83.8109 145.17 83.6357 145.33 83.7313C145.489 83.795 145.569 83.9065 145.569 84.0657C145.569 84.1931 145.346 84.7186 144.9 85.6422C144.486 86.5339 144.056 87.3779 143.61 88.1741C143.196 88.9703 142.591 89.8621 141.795 90.8493C140.361 92.6328 138.403 93.5246 135.919 93.5246C134.135 93.5246 132.845 93.0946 132.049 92.2347C131.285 91.343 130.903 90.3238 130.903 89.1773C130.903 87.776 131.237 86.2473 131.906 84.5912C132.606 82.9351 133.403 81.5019 134.294 80.2917C136.142 77.7757 138.275 76.5177 140.696 76.5177C141.874 76.5177 142.718 76.8043 143.228 77.3776C143.769 77.919 144.04 78.556 144.04 79.2885C144.04 80.3713 143.594 81.2949 142.702 82.0593C142.256 82.4733 141.874 82.6803 141.556 82.6803C141.269 82.6803 141.014 82.5688 140.791 82.3459ZM153.105 76.6132C155.43 76.6132 156.593 78.0782 156.593 81.0083C156.593 82.3459 156.242 83.7791 155.542 85.3078C154.65 87.3779 153.312 89.2569 151.529 90.9449C151.943 91.7411 152.691 92.1392 153.774 92.1392C154.634 92.1392 155.446 91.7092 156.211 90.8493C157.166 89.8621 157.851 89.0022 158.265 88.2696C158.679 87.5053 158.981 86.9479 159.172 86.5976C159.364 86.2473 159.602 85.7536 159.889 85.1167C160.207 84.4479 160.399 84.0498 160.462 83.9224C160.526 83.7631 160.637 83.6835 160.797 83.6835C161.115 83.6517 161.274 83.7631 161.274 84.0179C161.274 84.1135 161.243 84.2249 161.179 84.3523L160.892 85.0211C160.701 85.467 160.558 85.7855 160.462 85.9766C160.367 86.1677 160.192 86.518 159.937 87.0276C159.714 87.5053 159.507 87.8875 159.316 88.1741C159.157 88.4607 158.918 88.8429 158.599 89.3206C158.313 89.7984 158.042 90.1805 157.787 90.4672C157.564 90.7538 157.277 91.0723 156.927 91.4226C156.577 91.7729 156.242 92.0436 155.924 92.2347C155.128 92.7125 154.379 92.9513 153.679 92.9513C152.373 92.9513 151.354 92.5373 150.621 91.7092C149.156 92.7921 147.803 93.3335 146.561 93.3335C144.236 93.3335 143.073 91.8685 143.073 88.9385C143.073 87.6008 143.424 86.1677 144.124 84.639C145.08 82.4096 146.417 80.5146 148.137 78.9541C149.889 77.3935 151.545 76.6132 153.105 76.6132ZM153.631 78.0942C152.771 78.0942 151.752 78.6674 150.573 79.814C149.395 80.9605 148.344 82.5211 147.42 84.4956C146.306 86.7887 145.748 88.6677 145.748 90.1328C145.748 91.5978 146.306 92.3303 147.42 92.3303C148.217 92.3303 149.108 91.9003 150.096 91.0404C149.586 90.3079 149.331 89.5276 149.331 88.6996C149.395 87.3301 149.952 86.6454 151.003 86.6454C151.417 86.6454 151.752 86.7887 152.007 87.0753C152.293 87.362 152.437 87.6327 152.437 87.8875C152.437 88.1104 152.405 88.3493 152.341 88.6041C152.882 87.8078 153.503 86.6772 154.204 85.2122C155 83.588 155.398 81.9956 155.398 80.435C155.398 78.8745 154.809 78.0942 153.631 78.0942ZM166.862 74.1769C166.862 75.61 165.954 76.9636 164.139 78.2375C164.776 78.2693 165.62 78.2853 166.671 78.2853C167.754 78.2853 169.107 78.2056 170.731 78.0464C170.795 78.1419 170.827 78.3967 170.827 78.8108C170.827 79.2248 170.636 79.8458 170.254 80.6739C169.872 81.4701 169.521 82.1707 169.203 82.7758C168.916 83.3491 168.629 83.9065 168.343 84.4479C168.088 84.9574 167.785 85.5944 167.435 86.3588C167.117 87.1231 166.846 87.8238 166.623 88.4607C165.827 90.8812 165.954 92.0914 167.005 92.0914C168.343 92.0914 170.317 89.4321 172.929 84.1135C173.152 83.6994 173.327 83.5402 173.454 83.6357C173.614 83.7313 173.693 83.8587 173.693 84.0179C173.693 84.1453 173.486 84.639 173.072 85.4989C172.658 86.3269 172.212 87.1868 171.735 88.0786C171.257 88.9703 170.508 90.0054 169.489 91.1837C168.279 92.6488 167.117 93.3813 166.002 93.3813C164.76 93.3813 163.9 92.6328 163.422 91.136C163.327 90.8493 163.279 90.4194 163.279 89.8461C163.279 89.2729 163.454 88.5085 163.804 87.5531C164.187 86.5976 164.776 85.4352 165.572 84.0657C166.368 82.6962 166.814 81.9 166.91 81.6771C167.005 81.4223 167.053 81.1834 167.053 80.9605C167.053 79.9732 165.779 79.4477 163.231 79.384L162.658 80.9127C160.652 86.1677 158.725 89.6869 156.878 91.4704C156.559 91.757 156.4 91.6615 156.4 91.1837C156.4 91.0882 156.432 90.9767 156.495 90.8493C158.279 88.4926 159.823 85.7059 161.129 82.4892C162.435 79.2726 163.343 76.2151 163.852 73.317C164.043 72.3297 164.489 71.836 165.19 71.836C165.891 71.836 166.4 72.2819 166.719 73.1736C166.814 73.4603 166.862 73.7947 166.862 74.1769Z" fill="#D1B8B8"></path><path d="M135.118 74.1092L115.322 14.7209L85.1333 94.8951L55.2961 181.998H39.2357L107.835 0.7276H122.401L150.171 74.1092H135.118Z" fill="#D1B8B8"></path><path d="M99.9805 95.8849V108.752H147.3L175.064 181.998H191L158.412 95.8849H99.9805Z" fill="#F8F7F6"></path><path d="M9.89589 188.47C10.6272 188.47 11.3823 188.542 12.1612 188.685C12.9561 188.828 13.5919 189.034 14.0689 189.305C14.2119 189.384 14.2994 189.456 14.3312 189.519C14.3788 189.583 14.4106 189.702 14.4265 189.877L14.6888 192.548C14.6888 192.579 14.6491 192.611 14.5696 192.643C14.4901 192.659 14.4424 192.635 14.4265 192.571C14.0609 191.284 13.3932 190.37 12.4235 189.829C11.4538 189.273 10.3013 188.995 8.96592 188.995C7.74185 188.995 6.67675 189.265 5.77062 189.805C4.88038 190.33 4.18886 191.077 3.69606 192.047C3.20325 193.001 2.95684 194.121 2.95684 195.409C2.95684 196.538 3.13171 197.603 3.48145 198.604C3.83118 199.59 4.31604 200.456 4.93602 201.203C5.5719 201.951 6.29522 202.539 7.10596 202.968C7.93261 203.381 8.80695 203.588 9.72897 203.588C10.8418 203.588 11.8194 203.286 12.662 202.682C13.5204 202.062 14.1801 201.084 14.6411 199.749C14.657 199.685 14.7047 199.669 14.7842 199.701C14.8796 199.717 14.9273 199.741 14.9273 199.773L14.5935 202.467C14.5617 202.658 14.5219 202.785 14.4742 202.849C14.4424 202.897 14.355 202.952 14.2119 203.016C13.4489 203.334 12.6938 203.564 11.9466 203.707C11.1994 203.85 10.4443 203.922 9.68128 203.922C8.17106 203.922 6.87546 203.691 5.79446 203.23C4.71346 202.753 3.83118 202.133 3.14761 201.37C2.46404 200.591 1.96328 199.741 1.64534 198.819C1.3274 197.881 1.16843 196.959 1.16843 196.053C1.16843 194.908 1.40689 193.875 1.8838 192.953C2.36071 192.031 3.01248 191.236 3.83913 190.568C4.66577 189.901 5.59575 189.384 6.62905 189.018C7.67826 188.653 8.7672 188.47 9.89589 188.47ZM20.4343 189.162C19.4487 189.162 18.7015 189.416 18.1928 189.925C17.7 190.433 17.3423 191.3 17.1198 192.524C17.1198 192.556 17.0721 192.571 16.9767 192.571C16.8972 192.571 16.8575 192.556 16.8575 192.524C16.8893 192.317 16.9211 192.031 16.9529 191.665C16.9847 191.284 17.0164 190.878 17.0482 190.449C17.0959 190.02 17.1277 189.607 17.1436 189.209C17.1754 188.796 17.1913 188.462 17.1913 188.208C17.1913 188.128 17.2311 188.088 17.3105 188.088C17.4059 188.088 17.4536 188.128 17.4536 188.208C17.4536 188.367 17.5331 188.486 17.6921 188.565C17.851 188.629 18.0259 188.677 18.2167 188.708C18.4233 188.724 18.5982 188.732 18.7413 188.732C20.1084 188.78 21.7061 188.804 23.5342 188.804C24.6629 188.804 25.5531 188.796 26.2049 188.78C26.8726 188.748 27.5164 188.732 28.1364 188.732C28.6769 188.732 29.0902 188.7 29.3764 188.637C29.6784 188.557 29.8692 188.391 29.9487 188.136C29.9646 188.073 30.0123 188.041 30.0917 188.041C30.1712 188.041 30.211 188.073 30.211 188.136C30.1951 188.375 30.1712 188.7 30.1394 189.114C30.1076 189.527 30.0838 189.956 30.0679 190.401C30.052 190.847 30.0361 191.26 30.0202 191.641C30.0043 192.023 29.9964 192.317 29.9964 192.524C29.9964 192.556 29.9487 192.571 29.8533 192.571C29.7579 192.571 29.7102 192.556 29.7102 192.524C29.6625 191.284 29.4082 190.417 28.9472 189.925C28.4861 189.416 27.7231 189.162 26.658 189.162C25.9903 189.162 25.4896 189.193 25.1557 189.257C24.8219 189.32 24.5993 189.464 24.488 189.686C24.3927 189.893 24.345 190.235 24.345 190.711V201.704C24.345 202.165 24.4006 202.515 24.5119 202.753C24.6232 202.992 24.8378 203.151 25.1557 203.23C25.4896 203.31 25.9903 203.35 26.658 203.35C26.7057 203.35 26.7295 203.397 26.7295 203.493C26.7295 203.588 26.7057 203.636 26.658 203.636C26.2447 203.636 25.7757 203.628 25.2511 203.612C24.7265 203.596 24.1542 203.588 23.5342 203.588C22.946 203.588 22.3896 203.596 21.865 203.612C21.3404 203.628 20.8635 203.636 20.4343 203.636C20.4025 203.636 20.3866 203.588 20.3866 203.493C20.3866 203.397 20.4025 203.35 20.4343 203.35C21.0861 203.35 21.5789 203.31 21.9127 203.23C22.2625 203.151 22.493 202.992 22.6042 202.753C22.7155 202.515 22.7712 202.165 22.7712 201.704V190.664C22.7712 190.187 22.7155 189.845 22.6042 189.638C22.493 189.416 22.2704 189.281 21.9366 189.233C21.6027 189.185 21.102 189.162 20.4343 189.162ZM36.1196 203.922C35.6745 203.922 35.2771 203.819 34.9274 203.612C34.5935 203.405 34.4266 203.103 34.4266 202.706C34.4266 202.451 34.514 202.229 34.6889 202.038C34.8638 201.831 35.1102 201.728 35.4281 201.728C35.6984 201.728 35.8971 201.8 36.0242 201.943C36.1673 202.07 36.2706 202.221 36.3342 202.396C36.4137 202.571 36.4932 202.73 36.5727 202.873C36.6681 203.016 36.7873 203.087 36.9304 203.087C37.0893 203.087 37.2404 203.016 37.3834 202.873C37.5265 202.714 37.6616 202.475 37.7888 202.157L43.0587 190.664C43.313 190.107 43.313 189.694 43.0587 189.424C42.8043 189.154 42.2479 189.018 41.3895 189.018C41.3418 189.018 41.3179 188.971 41.3179 188.875C41.3179 188.78 41.3418 188.732 41.3895 188.732C41.771 188.732 42.1366 188.748 42.4864 188.78C42.8361 188.796 43.2892 188.804 43.8456 188.804C44.1158 188.804 44.3463 188.804 44.5371 188.804C44.7279 188.788 44.9107 188.772 45.0855 188.756C45.2763 188.74 45.4989 188.732 45.7532 188.732C45.785 188.732 45.8009 188.78 45.8009 188.875C45.8009 188.971 45.785 189.018 45.7532 189.018C45.3399 189.018 44.9425 189.169 44.5609 189.472C44.1953 189.774 43.8774 190.211 43.6071 190.783L38.2896 202.3C38.0511 202.825 37.757 203.23 37.4073 203.517C37.0734 203.787 36.6442 203.922 36.1196 203.922ZM38.7665 200.679L33.3774 190.711C33.0595 190.107 32.7574 189.678 32.4713 189.424C32.201 189.154 31.8115 189.018 31.3028 189.018C31.271 189.018 31.2551 188.971 31.2551 188.875C31.2551 188.78 31.271 188.732 31.3028 188.732C31.5413 188.732 31.7638 188.74 31.9705 188.756C32.1931 188.772 32.4236 188.788 32.662 188.804C32.9164 188.804 33.1866 188.804 33.4728 188.804C33.9338 188.804 34.3312 188.804 34.6651 188.804C35.0148 188.788 35.3168 188.772 35.5712 188.756C35.8414 188.74 36.0878 188.732 36.3104 188.732C36.3581 188.732 36.3819 188.78 36.3819 188.875C36.3819 188.971 36.3581 189.018 36.3104 189.018C35.7063 189.018 35.2532 189.13 34.9512 189.352C34.6492 189.575 34.6492 189.948 34.9512 190.473L39.5772 198.962L38.7665 200.679ZM61.356 203.35C61.4991 203.35 61.5786 203.365 61.5945 203.397C61.6263 203.413 61.6422 203.493 61.6422 203.636C61.6422 203.858 61.6183 204.097 61.5706 204.351C61.5388 204.621 61.507 205.003 61.4752 205.496C61.4434 205.989 61.4275 206.688 61.4275 207.594C61.4275 207.658 61.3799 207.689 61.2845 207.689C61.1891 207.689 61.1414 207.658 61.1414 207.594C61.1414 206.243 60.8394 205.241 60.2353 204.59C59.6471 203.954 58.6694 203.636 57.3023 203.636H49.8386C49.2186 203.636 48.6622 203.747 48.1694 203.97C47.6925 204.208 47.3189 204.613 47.0487 205.186C46.7784 205.774 46.6433 206.577 46.6433 207.594C46.6433 207.658 46.5956 207.689 46.5003 207.689C46.4049 207.689 46.3572 207.658 46.3572 207.594C46.3572 206.926 46.3413 206.378 46.3095 205.949C46.2936 205.52 46.2618 205.17 46.2141 204.9C46.1823 204.629 46.1505 204.399 46.1187 204.208C46.1028 204.017 46.0949 203.819 46.0949 203.612C46.0949 203.485 46.1028 203.405 46.1187 203.373C46.1505 203.342 46.2221 203.326 46.3333 203.326C47.0169 203.326 47.621 203.103 48.1456 202.658C48.6861 202.197 49.163 201.593 49.5763 200.846C50.0055 200.099 50.3712 199.272 50.6732 198.366C50.9912 197.46 51.2455 196.546 51.4363 195.624C51.627 194.686 51.7701 193.811 51.8655 193.001C51.9609 192.174 52.0086 191.482 52.0086 190.926C52.0086 190.545 51.9609 190.211 51.8655 189.925C51.7701 189.638 51.5476 189.416 51.1978 189.257C50.864 189.098 50.3235 189.018 49.5763 189.018C49.5445 189.018 49.5286 188.971 49.5286 188.875C49.5286 188.78 49.5445 188.732 49.5763 188.732C49.6717 188.732 49.934 188.732 50.3632 188.732C50.8083 188.732 51.3647 188.732 52.0324 188.732C52.7001 188.732 53.4155 188.732 54.1785 188.732C54.9575 188.732 55.7285 188.732 56.4915 188.732C57.2546 188.732 57.962 188.732 58.6138 188.732C59.2656 188.732 59.7981 188.732 60.2114 188.732C60.6247 188.732 60.8632 188.732 60.9268 188.732C60.9586 188.732 60.9745 188.78 60.9745 188.875C60.9745 188.971 60.9586 189.018 60.9268 189.018C60.3386 189.018 59.8935 189.066 59.5914 189.162C59.2894 189.241 59.0907 189.4 58.9953 189.638C58.8999 189.861 58.8522 190.203 58.8522 190.664V201.704C58.8522 202.102 58.8602 202.42 58.8761 202.658C58.9079 202.881 58.9953 203.04 59.1384 203.135C59.2814 203.23 59.5199 203.294 59.8537 203.326C60.2035 203.342 60.7042 203.35 61.356 203.35ZM57.3023 201.657V190.711C57.3023 190.219 57.2705 189.877 57.2069 189.686C57.1592 189.479 57.0082 189.36 56.7538 189.328C56.4995 189.281 56.0623 189.257 55.4423 189.257H54.2739C53.8129 189.257 53.479 189.328 53.2724 189.472C53.0657 189.615 52.9306 189.885 52.867 190.282C52.8034 190.68 52.7398 191.268 52.6762 192.047C52.6444 192.333 52.5888 192.77 52.5093 193.358C52.4298 193.947 52.3106 194.614 52.1516 195.361C52.0086 196.109 51.8257 196.895 51.6032 197.722C51.3806 198.533 51.1183 199.32 50.8163 200.083C50.5142 200.846 50.1645 201.521 49.7671 202.11C49.3697 202.682 48.9166 203.119 48.4079 203.421V203.111H55.3231C55.9749 203.111 56.4359 203.087 56.7061 203.04C56.9923 202.992 57.1592 202.873 57.2069 202.682C57.2705 202.475 57.3023 202.133 57.3023 201.657ZM66.203 201.919L65.7976 201.537L76.2896 190.354L76.6712 190.711L66.203 201.919ZM63.1031 203.636C63.0713 203.636 63.0554 203.588 63.0554 203.493C63.0554 203.397 63.0713 203.35 63.1031 203.35C63.6913 203.35 64.1364 203.31 64.4384 203.23C64.7405 203.151 64.9392 202.992 65.0346 202.753C65.1458 202.515 65.2015 202.165 65.2015 201.704V190.664C65.2015 190.203 65.1458 189.861 65.0346 189.638C64.9392 189.4 64.7405 189.241 64.4384 189.162C64.1523 189.066 63.7151 189.018 63.1269 189.018C63.0951 189.018 63.0792 188.971 63.0792 188.875C63.0792 188.78 63.0951 188.732 63.1269 188.732C63.5084 188.732 63.9377 188.748 64.4146 188.78C64.9074 188.796 65.4161 188.804 65.9407 188.804C66.5289 188.804 67.0614 188.796 67.5383 188.78C68.0152 188.748 68.4445 188.732 68.826 188.732C68.8578 188.732 68.8737 188.78 68.8737 188.875C68.8737 188.971 68.8578 189.018 68.826 189.018C68.2378 189.018 67.7927 189.066 67.4906 189.162C67.1886 189.257 66.9819 189.424 66.8707 189.662C66.7753 189.901 66.7276 190.25 66.7276 190.711V201.704C66.7276 202.165 66.7753 202.515 66.8707 202.753C66.966 202.992 67.1648 203.151 67.4668 203.23C67.7847 203.31 68.2378 203.35 68.826 203.35C68.8578 203.35 68.8737 203.397 68.8737 203.493C68.8737 203.588 68.8578 203.636 68.826 203.636C68.4286 203.636 67.9914 203.628 67.5145 203.612C67.0535 203.596 66.5289 203.588 65.9407 203.588C65.4161 203.588 64.9074 203.596 64.4146 203.612C63.9218 203.628 63.4846 203.636 63.1031 203.636ZM73.4997 203.636C73.4679 203.636 73.452 203.588 73.452 203.493C73.452 203.397 73.4679 203.35 73.4997 203.35C74.1197 203.35 74.5728 203.31 74.8589 203.23C75.1609 203.151 75.3597 202.992 75.455 202.753C75.5504 202.515 75.5981 202.165 75.5981 201.704V190.711C75.5981 190.25 75.5504 189.901 75.455 189.662C75.3597 189.424 75.1609 189.257 74.8589 189.162C74.5728 189.066 74.1197 189.018 73.4997 189.018C73.4679 189.018 73.452 188.971 73.452 188.875C73.452 188.78 73.4679 188.732 73.4997 188.732C73.8971 188.732 74.3264 188.748 74.7874 188.78C75.2643 188.796 75.7968 188.804 76.385 188.804C76.9096 188.804 77.4183 188.796 77.9111 188.78C78.4039 188.748 78.8411 188.732 79.2226 188.732C79.2544 188.732 79.2703 188.78 79.2703 188.875C79.2703 188.971 79.2544 189.018 79.2226 189.018C78.6344 189.018 78.1893 189.066 77.8873 189.162C77.5852 189.241 77.3865 189.4 77.2911 189.638C77.1958 189.861 77.1481 190.203 77.1481 190.664V201.704C77.1481 202.165 77.1958 202.515 77.2911 202.753C77.3865 202.992 77.5852 203.151 77.8873 203.23C78.1893 203.31 78.6344 203.35 79.2226 203.35C79.2544 203.35 79.2703 203.397 79.2703 203.493C79.2703 203.588 79.2544 203.636 79.2226 203.636C78.8411 203.636 78.4039 203.628 77.9111 203.612C77.4183 203.596 76.9096 203.588 76.385 203.588C75.7968 203.588 75.2643 203.596 74.7874 203.612C74.3264 203.628 73.8971 203.636 73.4997 203.636ZM93.3885 203.35C93.4203 203.35 93.4362 203.397 93.4362 203.493C93.4362 203.588 93.4203 203.636 93.3885 203.636C92.9911 203.636 92.546 203.628 92.0532 203.612C91.5763 203.596 91.0755 203.588 90.5509 203.588C89.9945 203.588 89.4779 203.596 89.001 203.612C88.54 203.628 88.1107 203.636 87.7133 203.636C87.6815 203.636 87.6656 203.588 87.6656 203.493C87.6656 203.397 87.6815 203.35 87.7133 203.35C88.3174 203.35 88.7625 203.31 89.0487 203.23C89.3348 203.151 89.5256 202.992 89.621 202.753C89.7163 202.515 89.764 202.165 89.764 201.704V195.791L90.1932 195.91C89.7481 195.91 89.3507 195.95 89.001 196.029C88.6512 196.109 88.3095 196.275 87.9756 196.53C87.6577 196.768 87.3159 197.134 86.9503 197.627C86.5846 198.119 86.1554 198.787 85.6626 199.63C85.0585 200.695 84.5657 201.506 84.1842 202.062C83.8185 202.618 83.5245 203.008 83.3019 203.23C83.0952 203.453 82.9204 203.58 82.7773 203.612C82.6501 203.628 82.515 203.636 82.3719 203.636H79.9158C79.8681 203.636 79.8443 203.588 79.8443 203.493C79.8443 203.397 79.8681 203.35 79.9158 203.35C80.5199 203.334 81.0445 203.175 81.4896 202.873C81.9348 202.555 82.3719 202.086 82.8011 201.466C83.2463 200.846 83.7311 200.075 84.2557 199.153C84.7326 198.31 85.1777 197.658 85.5911 197.197C86.0044 196.721 86.4416 196.379 86.9026 196.172C87.3795 195.965 87.9041 195.838 88.4764 195.791L88.6433 195.957C86.9264 195.942 85.6308 195.608 84.7565 194.956C83.8821 194.304 83.445 193.43 83.445 192.333C83.445 191.602 83.6278 190.966 83.9934 190.425C84.3749 189.869 84.8916 189.44 85.5434 189.138C86.211 188.82 86.9582 188.661 87.7849 188.661C88.1187 188.661 88.5638 188.685 89.1202 188.732C89.6766 188.78 90.1535 188.804 90.5509 188.804C91.0755 188.804 91.5763 188.796 92.0532 188.78C92.5301 188.748 92.9673 188.732 93.3647 188.732C93.3965 188.732 93.4124 188.78 93.4124 188.875C93.4124 188.971 93.3965 189.018 93.3647 189.018C92.7765 189.018 92.3314 189.066 92.0294 189.162C91.7432 189.241 91.5445 189.4 91.4332 189.638C91.3378 189.861 91.2901 190.203 91.2901 190.664V201.704C91.2901 202.165 91.3378 202.515 91.4332 202.753C91.5445 202.992 91.7512 203.151 92.0532 203.23C92.3552 203.31 92.8004 203.35 93.3885 203.35ZM85.0426 191.737C85.0426 192.85 85.3606 193.772 85.9964 194.503C86.6482 195.218 87.61 195.576 88.8817 195.576C89.0884 195.576 89.3269 195.568 89.5971 195.552C89.8674 195.52 90.082 195.481 90.2409 195.433L89.764 195.6V190.711C89.764 190.25 89.6607 189.893 89.454 189.638C89.2633 189.384 89.0089 189.209 88.691 189.114C88.3889 189.018 88.0789 188.971 87.761 188.971C85.9487 188.971 85.0426 189.893 85.0426 191.737ZM115.544 203.35C115.687 203.35 115.767 203.365 115.782 203.397C115.814 203.413 115.83 203.493 115.83 203.636C115.83 203.858 115.806 204.097 115.759 204.351C115.727 204.621 115.695 205.003 115.663 205.496C115.631 205.989 115.616 206.688 115.616 207.594C115.616 207.658 115.568 207.689 115.472 207.689C115.377 207.689 115.329 207.658 115.329 207.594C115.329 206.243 115.027 205.241 114.423 204.59C113.835 203.954 112.857 203.636 111.49 203.636H104.027C103.407 203.636 102.85 203.747 102.357 203.97C101.881 204.208 101.507 204.613 101.237 205.186C100.966 205.774 100.831 206.577 100.831 207.594C100.831 207.658 100.784 207.689 100.688 207.689C100.593 207.689 100.545 207.658 100.545 207.594C100.545 206.926 100.529 206.378 100.497 205.949C100.482 205.52 100.45 205.17 100.402 204.9C100.37 204.629 100.339 204.399 100.307 204.208C100.291 204.017 100.283 203.819 100.283 203.612C100.283 203.485 100.291 203.405 100.307 203.373C100.339 203.342 100.41 203.326 100.521 203.326C101.205 203.326 101.809 203.103 102.334 202.658C102.874 202.197 103.351 201.593 103.764 200.846C104.194 200.099 104.559 199.272 104.861 198.366C105.179 197.46 105.434 196.546 105.624 195.624C105.815 194.686 105.958 193.811 106.053 193.001C106.149 192.174 106.197 191.482 106.197 190.926C106.197 190.545 106.149 190.211 106.053 189.925C105.958 189.638 105.736 189.416 105.386 189.257C105.052 189.098 104.511 189.018 103.764 189.018C103.733 189.018 103.717 188.971 103.717 188.875C103.717 188.78 103.733 188.732 103.764 188.732C103.86 188.732 104.122 188.732 104.551 188.732C104.996 188.732 105.553 188.732 106.22 188.732C106.888 188.732 107.603 188.732 108.367 188.732C109.145 188.732 109.916 188.732 110.68 188.732C111.443 188.732 112.15 188.732 112.802 188.732C113.454 188.732 113.986 188.732 114.399 188.732C114.813 188.732 115.051 188.732 115.115 188.732C115.147 188.732 115.162 188.78 115.162 188.875C115.162 188.971 115.147 189.018 115.115 189.018C114.527 189.018 114.081 189.066 113.779 189.162C113.477 189.241 113.279 189.4 113.183 189.638C113.088 189.861 113.04 190.203 113.04 190.664V201.704C113.04 202.102 113.048 202.42 113.064 202.658C113.096 202.881 113.183 203.04 113.326 203.135C113.469 203.23 113.708 203.294 114.042 203.326C114.391 203.342 114.892 203.35 115.544 203.35ZM111.49 201.657V190.711C111.49 190.219 111.458 189.877 111.395 189.686C111.347 189.479 111.196 189.36 110.942 189.328C110.687 189.281 110.25 189.257 109.63 189.257H108.462C108.001 189.257 107.667 189.328 107.46 189.472C107.254 189.615 107.119 189.885 107.055 190.282C106.991 190.68 106.928 191.268 106.864 192.047C106.832 192.333 106.777 192.77 106.697 193.358C106.618 193.947 106.499 194.614 106.34 195.361C106.197 196.109 106.014 196.895 105.791 197.722C105.569 198.533 105.306 199.32 105.004 200.083C104.702 200.846 104.353 201.521 103.955 202.11C103.558 202.682 103.105 203.119 102.596 203.421V203.111H109.511C110.163 203.111 110.624 203.087 110.894 203.04C111.18 202.992 111.347 202.873 111.395 202.682C111.458 202.475 111.49 202.133 111.49 201.657ZM127.473 203.636H117.482C117.45 203.636 117.434 203.588 117.434 203.493C117.434 203.397 117.45 203.35 117.482 203.35C118.07 203.35 118.507 203.31 118.793 203.23C119.079 203.151 119.27 202.992 119.366 202.753C119.477 202.515 119.533 202.165 119.533 201.704V190.664C119.533 190.203 119.477 189.861 119.366 189.638C119.27 189.4 119.079 189.241 118.793 189.162C118.507 189.066 118.07 189.018 117.482 189.018C117.45 189.018 117.434 188.971 117.434 188.875C117.434 188.78 117.45 188.732 117.482 188.732H127.068C127.211 188.732 127.282 188.804 127.282 188.947L127.33 191.88C127.33 191.928 127.282 191.959 127.187 191.975C127.107 191.975 127.068 191.951 127.068 191.904C127.02 191.045 126.758 190.386 126.281 189.925C125.82 189.464 125.216 189.233 124.469 189.233H123.014C122.474 189.233 122.06 189.273 121.774 189.352C121.504 189.432 121.313 189.583 121.202 189.805C121.106 190.028 121.059 190.354 121.059 190.783V201.609C121.059 202.022 121.106 202.34 121.202 202.563C121.313 202.785 121.496 202.936 121.75 203.016C122.02 203.095 122.418 203.135 122.942 203.135H124.85C125.613 203.135 126.249 202.865 126.758 202.324C127.282 201.768 127.624 201.021 127.783 200.083C127.783 200.035 127.831 200.019 127.926 200.035C128.022 200.051 128.069 200.083 128.069 200.13C128.006 200.544 127.95 201.045 127.902 201.633C127.871 202.221 127.855 202.769 127.855 203.278C127.855 203.517 127.727 203.636 127.473 203.636ZM126.138 198.08C126.138 197.38 125.963 196.88 125.613 196.577C125.279 196.275 124.715 196.124 123.92 196.124H120.343V195.624H123.992C124.755 195.624 125.295 195.496 125.613 195.242C125.947 194.972 126.114 194.543 126.114 193.954C126.114 193.923 126.162 193.907 126.257 193.907C126.352 193.907 126.4 193.923 126.4 193.954C126.4 194.431 126.392 194.805 126.376 195.075C126.376 195.33 126.376 195.6 126.376 195.886C126.376 196.252 126.384 196.609 126.4 196.959C126.416 197.309 126.424 197.682 126.424 198.08C126.424 198.112 126.376 198.127 126.281 198.127C126.185 198.127 126.138 198.112 126.138 198.08ZM141.711 203.636C141.568 203.636 141.433 203.612 141.306 203.564C141.179 203.517 141.012 203.373 140.805 203.135C140.599 202.897 140.297 202.507 139.899 201.967C139.502 201.41 138.953 200.631 138.254 199.63C137.761 198.914 137.34 198.326 136.99 197.865C136.656 197.404 136.346 197.054 136.06 196.816C135.79 196.562 135.496 196.387 135.178 196.291C134.86 196.18 134.47 196.124 134.009 196.124C133.85 196.124 133.683 196.132 133.509 196.148C133.334 196.164 133.159 196.18 132.984 196.196L132.96 195.767C133.962 195.719 134.741 195.695 135.297 195.695C135.822 195.695 136.251 195.743 136.585 195.838C136.934 195.918 137.244 196.085 137.515 196.339C137.801 196.577 138.111 196.927 138.445 197.388C138.794 197.833 139.232 198.422 139.756 199.153C140.392 200.043 140.956 200.798 141.449 201.418C141.958 202.038 142.467 202.515 142.975 202.849C143.484 203.167 144.064 203.334 144.716 203.35C144.748 203.35 144.764 203.397 144.764 203.493C144.764 203.588 144.748 203.636 144.716 203.636H141.711ZM130.075 203.636C130.043 203.636 130.027 203.588 130.027 203.493C130.027 203.397 130.043 203.35 130.075 203.35C130.663 203.35 131.108 203.31 131.41 203.23C131.712 203.151 131.911 202.992 132.006 202.753C132.102 202.515 132.149 202.165 132.149 201.704V190.664C132.149 190.203 132.102 189.861 132.006 189.638C131.911 189.4 131.712 189.241 131.41 189.162C131.124 189.066 130.687 189.018 130.099 189.018C130.067 189.018 130.051 188.971 130.051 188.875C130.051 188.78 130.067 188.732 130.099 188.732C130.48 188.732 130.909 188.748 131.386 188.78C131.863 188.796 132.364 188.804 132.889 188.804C133.461 188.804 133.986 188.796 134.462 188.78C134.955 188.748 135.392 188.732 135.774 188.732C135.806 188.732 135.822 188.78 135.822 188.875C135.822 188.971 135.806 189.018 135.774 189.018C135.186 189.018 134.741 189.066 134.439 189.162C134.152 189.257 133.954 189.424 133.842 189.662C133.747 189.901 133.699 190.25 133.699 190.711V201.704C133.699 202.165 133.747 202.515 133.842 202.753C133.938 202.992 134.137 203.151 134.439 203.23C134.741 203.31 135.186 203.35 135.774 203.35C135.806 203.35 135.822 203.397 135.822 203.493C135.822 203.588 135.806 203.636 135.774 203.636C135.377 203.636 134.939 203.628 134.462 203.612C133.986 203.596 133.461 203.588 132.889 203.588C132.364 203.588 131.855 203.596 131.363 203.612C130.886 203.628 130.456 203.636 130.075 203.636ZM136.06 196.077L135.631 195.862L138.635 191.665C139.383 190.648 139.74 189.956 139.708 189.591C139.693 189.209 139.287 189.018 138.492 189.018C138.461 189.018 138.445 188.971 138.445 188.875C138.445 188.78 138.461 188.732 138.492 188.732C138.874 188.732 139.263 188.748 139.661 188.78C140.058 188.796 140.575 188.804 141.211 188.804C141.847 188.804 142.339 188.796 142.689 188.78C143.055 188.748 143.405 188.732 143.738 188.732C143.786 188.732 143.81 188.78 143.81 188.875C143.81 188.971 143.786 189.018 143.738 189.018C143.182 189.018 142.673 189.114 142.212 189.305C141.751 189.479 141.298 189.766 140.853 190.163C140.424 190.545 139.971 191.053 139.494 191.689L136.06 196.077ZM152.825 203.922C151.681 203.922 150.639 203.723 149.701 203.326C148.779 202.912 147.985 202.348 147.317 201.633C146.665 200.917 146.156 200.099 145.791 199.177C145.441 198.239 145.266 197.245 145.266 196.196C145.266 194.908 145.513 193.78 146.005 192.81C146.514 191.84 147.182 191.037 148.008 190.401C148.835 189.75 149.741 189.265 150.727 188.947C151.712 188.629 152.69 188.47 153.66 188.47C154.836 188.47 155.885 188.685 156.807 189.114C157.745 189.527 158.54 190.091 159.192 190.807C159.844 191.522 160.337 192.333 160.67 193.239C161.02 194.145 161.195 195.075 161.195 196.029C161.195 197.142 160.972 198.175 160.527 199.129C160.082 200.083 159.47 200.917 158.691 201.633C157.928 202.348 157.038 202.912 156.02 203.326C155.019 203.723 153.954 203.922 152.825 203.922ZM153.66 203.421C154.741 203.421 155.71 203.167 156.569 202.658C157.427 202.133 158.111 201.37 158.62 200.369C159.128 199.367 159.383 198.143 159.383 196.697C159.383 195.202 159.104 193.883 158.548 192.738C158.008 191.578 157.229 190.672 156.211 190.02C155.21 189.352 154.025 189.018 152.658 189.018C150.894 189.018 149.519 189.591 148.533 190.735C147.563 191.864 147.078 193.406 147.078 195.361C147.078 196.49 147.229 197.547 147.531 198.533C147.849 199.503 148.302 200.361 148.891 201.108C149.479 201.839 150.178 202.412 150.989 202.825C151.8 203.222 152.69 203.421 153.66 203.421ZM166.933 201.609C166.933 202.086 166.996 202.451 167.124 202.706C167.251 202.944 167.521 203.111 167.934 203.207C168.348 203.302 168.96 203.35 169.77 203.35C169.818 203.35 169.842 203.397 169.842 203.493C169.842 203.588 169.818 203.636 169.77 203.636C169.262 203.636 168.705 203.628 168.101 203.612C167.513 203.596 166.869 203.588 166.17 203.588C165.645 203.588 165.136 203.596 164.644 203.612C164.167 203.628 163.737 203.636 163.356 203.636C163.324 203.636 163.308 203.588 163.308 203.493C163.308 203.397 163.324 203.35 163.356 203.35C163.944 203.35 164.381 203.31 164.667 203.23C164.954 203.151 165.144 202.992 165.24 202.753C165.335 202.515 165.383 202.165 165.383 201.704V190.664C165.383 190.203 165.335 189.861 165.24 189.638C165.144 189.4 164.954 189.241 164.667 189.162C164.381 189.066 163.944 189.018 163.356 189.018C163.324 189.018 163.308 188.971 163.308 188.875C163.308 188.78 163.324 188.732 163.356 188.732C163.737 188.732 164.167 188.748 164.644 188.78C165.121 188.796 165.621 188.804 166.146 188.804C166.559 188.804 167.06 188.78 167.648 188.732C168.252 188.685 168.856 188.661 169.46 188.661C170.367 188.661 171.177 188.796 171.893 189.066C172.624 189.336 173.204 189.758 173.633 190.33C174.063 190.902 174.285 191.649 174.301 192.571C174.301 193.414 174.142 194.137 173.824 194.741C173.522 195.345 173.109 195.846 172.584 196.244C172.075 196.625 171.511 196.911 170.891 197.102C170.271 197.293 169.651 197.388 169.031 197.388C168.84 197.388 168.642 197.38 168.435 197.364C168.244 197.348 168.061 197.317 167.887 197.269C167.823 197.253 167.799 197.197 167.815 197.102C167.847 196.991 167.887 196.943 167.934 196.959C168.077 196.991 168.22 197.015 168.364 197.031C168.522 197.046 168.666 197.054 168.793 197.054C169.445 197.054 170.057 196.911 170.629 196.625C171.201 196.339 171.662 195.902 172.012 195.314C172.362 194.71 172.536 193.962 172.536 193.072C172.536 192.198 172.378 191.467 172.06 190.878C171.742 190.274 171.304 189.813 170.748 189.495C170.192 189.177 169.572 189.018 168.888 189.018C168.364 189.018 167.958 189.05 167.672 189.114C167.402 189.162 167.211 189.305 167.1 189.543C166.988 189.781 166.933 190.171 166.933 190.711V201.609ZM179.333 195.743L179.691 195.242H184.603L184.77 195.743H179.333ZM190.922 203.35C190.986 203.35 191.017 203.397 191.017 203.493C191.017 203.588 190.986 203.636 190.922 203.636C190.461 203.636 189.992 203.62 189.515 203.588C189.038 203.556 188.577 203.54 188.132 203.54C187.639 203.54 187.21 203.556 186.844 203.588C186.479 203.62 186.073 203.636 185.628 203.636C185.565 203.636 185.533 203.588 185.533 203.493C185.533 203.397 185.565 203.35 185.628 203.35C186.471 203.35 186.995 203.23 187.202 202.992C187.409 202.738 187.353 202.269 187.035 201.585L181.741 190.401L182.338 189.662L177.712 200.607C177.314 201.577 177.29 202.277 177.64 202.706C177.99 203.135 178.681 203.35 179.715 203.35C179.794 203.35 179.834 203.397 179.834 203.493C179.834 203.588 179.794 203.636 179.715 203.636C179.238 203.636 178.8 203.62 178.403 203.588C178.006 203.556 177.505 203.54 176.901 203.54C176.328 203.54 175.867 203.556 175.518 203.588C175.184 203.62 174.771 203.636 174.278 203.636C174.214 203.636 174.182 203.588 174.182 203.493C174.182 203.397 174.214 203.35 174.278 203.35C174.707 203.35 175.081 203.27 175.399 203.111C175.716 202.936 176.011 202.642 176.281 202.229C176.567 201.8 176.877 201.188 177.211 200.393L182.242 188.518C182.274 188.47 182.33 188.446 182.409 188.446C182.489 188.446 182.536 188.47 182.552 188.518L188.18 200.369C188.545 201.148 188.871 201.76 189.157 202.205C189.444 202.634 189.722 202.936 189.992 203.111C190.278 203.27 190.588 203.35 190.922 203.35Z" fill="#F8F7F6"></path></svg> 