<?xml version="1.0" encoding="UTF-8"?> <svg xmlns="http://www.w3.org/2000/svg" width="186" height="66" viewBox="0 0 186 66" fill="none"><path d="M78.6536 9.0614C79.5271 9.0614 80.4291 9.14685 81.3596 9.31776C82.3091 9.48866 83.0686 9.73552 83.6383 10.0583C83.8092 10.1533 83.9136 10.2387 83.9516 10.3147C84.0086 10.3906 84.0466 10.5331 84.0656 10.7419L84.3789 13.9321C84.3789 13.9701 84.3314 14.0081 84.2365 14.0461C84.1415 14.065 84.0845 14.0366 84.0656 13.9606C83.6288 12.4225 82.8313 11.3306 81.6729 10.685C80.5146 10.0204 79.1379 9.68804 77.5428 9.68804C76.0806 9.68804 74.8083 10.0109 73.726 10.6565C72.6626 11.2831 71.8365 12.1756 71.2479 13.334C70.6592 14.4733 70.3649 15.812 70.3649 17.3502C70.3649 18.6984 70.5738 19.9707 70.9915 21.167C71.4093 22.3443 71.9884 23.3792 72.729 24.2717C73.4886 25.1642 74.3526 25.8668 75.321 26.3795C76.3085 26.8732 77.3529 27.1201 78.4543 27.1201C79.7835 27.1201 80.9513 26.7593 81.9578 26.0377C82.9832 25.2971 83.7712 24.1293 84.3219 22.5342C84.3409 22.4583 84.3979 22.4393 84.4928 22.4772C84.6067 22.4962 84.6637 22.5247 84.6637 22.5627L84.2649 25.7814C84.227 26.0092 84.1795 26.1611 84.1225 26.2371C84.0845 26.2941 83.9801 26.3605 83.8092 26.4365C82.8977 26.8163 81.9957 27.0916 81.1032 27.2625C80.2108 27.4334 79.3088 27.5189 78.3973 27.5189C76.5933 27.5189 75.0457 27.2435 73.7544 26.6928C72.4632 26.1232 71.4093 25.3826 70.5927 24.4711C69.7762 23.5406 69.178 22.5247 68.7983 21.4233C68.4185 20.303 68.2286 19.2016 68.2286 18.1192C68.2286 16.752 68.5134 15.5177 69.0831 14.4163C69.6528 13.315 70.4313 12.3655 71.4188 11.568C72.4062 10.7704 73.5171 10.1533 74.7514 9.71653C76.0047 9.27978 77.3054 9.0614 78.6536 9.0614ZM91.2419 9.88743C90.0646 9.88743 89.1721 10.1913 88.5644 10.7989C87.9758 11.4066 87.5485 12.4415 87.2827 13.9036C87.2827 13.9416 87.2257 13.9606 87.1118 13.9606C87.0168 13.9606 86.9693 13.9416 86.9693 13.9036C87.0073 13.6568 87.0453 13.315 87.0833 12.8782C87.1212 12.4225 87.1592 11.9383 87.1972 11.4256C87.2542 10.9128 87.2921 10.4191 87.3111 9.9444C87.3491 9.45068 87.3681 9.05191 87.3681 8.74808C87.3681 8.65314 87.4156 8.60566 87.5105 8.60566C87.6245 8.60566 87.6814 8.65314 87.6814 8.74808C87.6814 8.93797 87.7764 9.08039 87.9663 9.17534C88.1562 9.25129 88.365 9.30826 88.5929 9.34624C88.8398 9.36523 89.0486 9.37472 89.2195 9.37472C90.8526 9.43169 92.761 9.46017 94.9448 9.46017C96.293 9.46017 97.3564 9.45068 98.135 9.43169C98.9325 9.39371 99.7016 9.37472 100.442 9.37472C101.088 9.37472 101.581 9.33675 101.923 9.26079C102.284 9.16584 102.512 8.96646 102.607 8.66263C102.626 8.58667 102.683 8.54869 102.778 8.54869C102.873 8.54869 102.92 8.58667 102.92 8.66263C102.901 8.94747 102.873 9.33674 102.835 9.83046C102.797 10.3242 102.768 10.8369 102.749 11.3686C102.73 11.9003 102.711 12.394 102.692 12.8497C102.673 13.3055 102.664 13.6568 102.664 13.9036C102.664 13.9416 102.607 13.9606 102.493 13.9606C102.379 13.9606 102.322 13.9416 102.322 13.9036C102.265 12.4225 101.961 11.3876 101.411 10.7989C100.86 10.1913 99.9484 9.88743 98.6762 9.88743C97.8786 9.88743 97.2804 9.92541 96.8817 10.0014C96.4829 10.0773 96.2171 10.2482 96.0841 10.5141C95.9702 10.7609 95.9132 11.1692 95.9132 11.7389V24.8699C95.9132 25.4206 95.9797 25.8383 96.1126 26.1232C96.2455 26.408 96.5019 26.5979 96.8817 26.6928C97.2804 26.7878 97.8786 26.8353 98.6762 26.8353C98.7331 26.8353 98.7616 26.8922 98.7616 27.0062C98.7616 27.1201 98.7331 27.1771 98.6762 27.1771C98.1824 27.1771 97.6223 27.1676 96.9956 27.1486C96.369 27.1296 95.6854 27.1201 94.9448 27.1201C94.2422 27.1201 93.5776 27.1296 92.9509 27.1486C92.3243 27.1676 91.7546 27.1771 91.2419 27.1771C91.2039 27.1771 91.1849 27.1201 91.1849 27.0062C91.1849 26.8922 91.2039 26.8353 91.2419 26.8353C92.0205 26.8353 92.6091 26.7878 93.0079 26.6928C93.4256 26.5979 93.701 26.408 93.8339 26.1232C93.9668 25.8383 94.0333 25.4206 94.0333 24.8699V11.6819C94.0333 11.1122 93.9668 10.704 93.8339 10.4571C93.701 10.1913 93.4351 10.0298 93.0364 9.97288C92.6376 9.91591 92.0394 9.88743 91.2419 9.88743ZM109.978 27.5189C109.446 27.5189 108.972 27.3954 108.554 27.1486C108.155 26.9017 107.956 26.5409 107.956 26.0662C107.956 25.7624 108.06 25.4965 108.269 25.2687C108.478 25.0218 108.772 24.8984 109.152 24.8984C109.475 24.8984 109.712 24.9838 109.864 25.1547C110.035 25.3066 110.159 25.487 110.235 25.6959C110.329 25.9048 110.424 26.0947 110.519 26.2656C110.633 26.4365 110.776 26.5219 110.947 26.5219C111.137 26.5219 111.317 26.4365 111.488 26.2656C111.659 26.0757 111.82 25.7909 111.972 25.4111L118.267 11.6819C118.571 11.0173 118.571 10.5236 118.267 10.2008C117.963 9.87794 117.299 9.71653 116.273 9.71653C116.216 9.71653 116.188 9.65956 116.188 9.54563C116.188 9.43169 116.216 9.37472 116.273 9.37472C116.729 9.37472 117.166 9.39371 117.583 9.43169C118.001 9.45068 118.542 9.46017 119.207 9.46017C119.53 9.46017 119.805 9.46017 120.033 9.46017C120.261 9.44119 120.479 9.4222 120.688 9.40321C120.916 9.38422 121.182 9.37472 121.486 9.37472C121.524 9.37472 121.543 9.43169 121.543 9.54563C121.543 9.65956 121.524 9.71653 121.486 9.71653C120.992 9.71653 120.517 9.89693 120.061 10.2577C119.625 10.6185 119.245 11.1407 118.922 11.8243L112.57 25.582C112.285 26.2086 111.934 26.6928 111.516 27.0346C111.118 27.3575 110.605 27.5189 109.978 27.5189ZM113.14 23.6451L106.703 11.7389C106.323 11.0173 105.962 10.5046 105.62 10.2008C105.297 9.87794 104.832 9.71653 104.224 9.71653C104.186 9.71653 104.168 9.65956 104.168 9.54563C104.168 9.43169 104.186 9.37472 104.224 9.37472C104.509 9.37472 104.775 9.38422 105.022 9.40321C105.288 9.4222 105.563 9.44119 105.848 9.46017C106.152 9.46017 106.475 9.46017 106.816 9.46017C107.367 9.46017 107.842 9.46017 108.241 9.46017C108.658 9.44119 109.019 9.4222 109.323 9.40321C109.646 9.38422 109.94 9.37472 110.206 9.37472C110.263 9.37472 110.292 9.43169 110.292 9.54563C110.292 9.65956 110.263 9.71653 110.206 9.71653C109.484 9.71653 108.943 9.84945 108.582 10.1153C108.222 10.3811 108.222 10.8274 108.582 11.454L114.108 21.5942L113.14 23.6451ZM140.123 26.8353C140.294 26.8353 140.389 26.8542 140.408 26.8922C140.446 26.9112 140.465 27.0062 140.465 27.1771C140.465 27.4429 140.437 27.7277 140.38 28.0316C140.342 28.3544 140.304 28.8101 140.266 29.3988C140.228 29.9875 140.209 30.823 140.209 31.9054C140.209 31.9813 140.152 32.0193 140.038 32.0193C139.924 32.0193 139.867 31.9813 139.867 31.9054C139.867 30.2913 139.506 29.095 138.785 28.3164C138.082 27.5568 136.914 27.1771 135.281 27.1771H126.366C125.625 27.1771 124.96 27.31 124.372 27.5758C123.802 27.8607 123.356 28.3449 123.033 29.0285C122.71 29.7311 122.549 30.6901 122.549 31.9054C122.549 31.9813 122.492 32.0193 122.378 32.0193C122.264 32.0193 122.207 31.9813 122.207 31.9054C122.207 31.1078 122.188 30.4527 122.15 29.94C122.131 29.4273 122.093 29.0095 122.036 28.6867C121.998 28.3639 121.96 28.0885 121.922 27.8607C121.903 27.6328 121.894 27.3954 121.894 27.1486C121.894 26.9967 121.903 26.9017 121.922 26.8637C121.96 26.8258 122.046 26.8068 122.179 26.8068C122.995 26.8068 123.717 26.5409 124.343 26.0092C124.989 25.4585 125.559 24.737 126.052 23.8445C126.565 22.952 127.002 21.9645 127.363 20.8822C127.742 19.7998 128.046 18.7079 128.274 17.6065C128.502 16.4862 128.673 15.4418 128.787 14.4733C128.901 13.4859 128.958 12.6598 128.958 11.9952C128.958 11.5395 128.901 11.1407 128.787 10.7989C128.673 10.4571 128.407 10.1913 127.989 10.0014C127.59 9.81147 126.945 9.71653 126.052 9.71653C126.014 9.71653 125.995 9.65956 125.995 9.54563C125.995 9.43169 126.014 9.37472 126.052 9.37472C126.166 9.37472 126.48 9.37472 126.992 9.37472C127.524 9.37472 128.189 9.37472 128.986 9.37472C129.784 9.37472 130.638 9.37472 131.55 9.37472C132.48 9.37472 133.401 9.37472 134.313 9.37472C135.224 9.37472 136.069 9.37472 136.848 9.37472C137.626 9.37472 138.262 9.37472 138.756 9.37472C139.25 9.37472 139.535 9.37472 139.611 9.37472C139.649 9.37472 139.668 9.43169 139.668 9.54563C139.668 9.65956 139.649 9.71653 139.611 9.71653C138.908 9.71653 138.376 9.7735 138.016 9.88743C137.655 9.98238 137.417 10.1723 137.303 10.4571C137.19 10.723 137.133 11.1312 137.133 11.6819V24.8699C137.133 25.3446 137.142 25.7244 137.161 26.0092C137.199 26.2751 137.303 26.465 137.474 26.5789C137.645 26.6928 137.93 26.7688 138.329 26.8068C138.747 26.8258 139.345 26.8353 140.123 26.8353ZM135.281 24.8129V11.7389C135.281 11.1502 135.243 10.7419 135.167 10.5141C135.11 10.2672 134.93 10.1248 134.626 10.0868C134.322 10.0298 133.8 10.0014 133.059 10.0014H131.664C131.113 10.0014 130.714 10.0868 130.467 10.2577C130.22 10.4286 130.059 10.7514 129.983 11.2262C129.907 11.7009 129.831 12.4035 129.755 13.334C129.717 13.6758 129.651 14.198 129.556 14.9006C129.461 15.6032 129.319 16.4007 129.129 17.2932C128.958 18.1857 128.739 19.1257 128.473 20.1131C128.208 21.0815 127.894 22.0215 127.534 22.933C127.173 23.8445 126.755 24.6515 126.28 25.3541C125.806 26.0377 125.264 26.5599 124.657 26.9207V26.5504H132.917C133.696 26.5504 134.246 26.5219 134.569 26.465C134.911 26.408 135.11 26.2656 135.167 26.0377C135.243 25.7909 135.281 25.3826 135.281 24.8129ZM145.913 25.1262L145.429 24.6705L157.962 11.3116L158.417 11.7389L145.913 25.1262ZM142.21 27.1771C142.172 27.1771 142.153 27.1201 142.153 27.0062C142.153 26.8922 142.172 26.8353 142.21 26.8353C142.913 26.8353 143.445 26.7878 143.805 26.6928C144.166 26.5979 144.403 26.408 144.517 26.1232C144.65 25.8383 144.717 25.4206 144.717 24.8699V11.6819C144.717 11.1312 144.65 10.723 144.517 10.4571C144.403 10.1723 144.166 9.98238 143.805 9.88743C143.464 9.7735 142.941 9.71653 142.239 9.71653C142.201 9.71653 142.182 9.65956 142.182 9.54563C142.182 9.43169 142.201 9.37472 142.239 9.37472C142.694 9.37472 143.207 9.39371 143.777 9.43169C144.365 9.45068 144.973 9.46017 145.6 9.46017C146.302 9.46017 146.939 9.45068 147.508 9.43169C148.078 9.39371 148.591 9.37472 149.046 9.37472C149.084 9.37472 149.103 9.43169 149.103 9.54563C149.103 9.65956 149.084 9.71653 149.046 9.71653C148.344 9.71653 147.812 9.7735 147.451 9.88743C147.09 10.0014 146.844 10.2008 146.711 10.4856C146.597 10.7704 146.54 11.1882 146.54 11.7389V24.8699C146.54 25.4206 146.597 25.8383 146.711 26.1232C146.825 26.408 147.062 26.5979 147.423 26.6928C147.803 26.7878 148.344 26.8353 149.046 26.8353C149.084 26.8353 149.103 26.8922 149.103 27.0062C149.103 27.1201 149.084 27.1771 149.046 27.1771C148.572 27.1771 148.049 27.1676 147.48 27.1486C146.929 27.1296 146.302 27.1201 145.6 27.1201C144.973 27.1201 144.365 27.1296 143.777 27.1486C143.188 27.1676 142.666 27.1771 142.21 27.1771ZM154.629 27.1771C154.591 27.1771 154.572 27.1201 154.572 27.0062C154.572 26.8922 154.591 26.8353 154.629 26.8353C155.37 26.8353 155.911 26.7878 156.253 26.6928C156.613 26.5979 156.851 26.408 156.965 26.1232C157.079 25.8383 157.136 25.4206 157.136 24.8699V11.7389C157.136 11.1882 157.079 10.7704 156.965 10.4856C156.851 10.2008 156.613 10.0014 156.253 9.88743C155.911 9.7735 155.37 9.71653 154.629 9.71653C154.591 9.71653 154.572 9.65956 154.572 9.54563C154.572 9.43169 154.591 9.37472 154.629 9.37472C155.104 9.37472 155.617 9.39371 156.167 9.43169C156.737 9.45068 157.373 9.46017 158.076 9.46017C158.702 9.46017 159.31 9.45068 159.899 9.43169C160.487 9.39371 161.009 9.37472 161.465 9.37472C161.503 9.37472 161.522 9.43169 161.522 9.54563C161.522 9.65956 161.503 9.71653 161.465 9.71653C160.763 9.71653 160.231 9.7735 159.87 9.88743C159.509 9.98238 159.272 10.1723 159.158 10.4571C159.044 10.723 158.987 11.1312 158.987 11.6819V24.8699C158.987 25.4206 159.044 25.8383 159.158 26.1232C159.272 26.408 159.509 26.5979 159.87 26.6928C160.231 26.7878 160.763 26.8353 161.465 26.8353C161.503 26.8353 161.522 26.8922 161.522 27.0062C161.522 27.1201 161.503 27.1771 161.465 27.1771C161.009 27.1771 160.487 27.1676 159.899 27.1486C159.31 27.1296 158.702 27.1201 158.076 27.1201C157.373 27.1201 156.737 27.1296 156.167 27.1486C155.617 27.1676 155.104 27.1771 154.629 27.1771ZM178.387 26.8353C178.425 26.8353 178.444 26.8922 178.444 27.0062C178.444 27.1201 178.425 27.1771 178.387 27.1771C177.912 27.1771 177.38 27.1676 176.791 27.1486C176.222 27.1296 175.624 27.1201 174.997 27.1201C174.332 27.1201 173.715 27.1296 173.146 27.1486C172.595 27.1676 172.082 27.1771 171.607 27.1771C171.569 27.1771 171.55 27.1201 171.55 27.0062C171.55 26.8922 171.569 26.8353 171.607 26.8353C172.329 26.8353 172.861 26.7878 173.203 26.6928C173.544 26.5979 173.772 26.408 173.886 26.1232C174 25.8383 174.057 25.4206 174.057 24.8699V17.8059L174.57 17.9483C174.038 17.9483 173.563 17.9958 173.146 18.0907C172.728 18.1857 172.32 18.3851 171.921 18.6889C171.541 18.9737 171.133 19.4105 170.696 19.9992C170.259 20.5878 169.747 21.3854 169.158 22.3918C168.436 23.6641 167.848 24.6325 167.392 25.2971C166.955 25.9618 166.604 26.427 166.338 26.6928C166.091 26.9587 165.882 27.1106 165.711 27.1486C165.559 27.1676 165.398 27.1771 165.227 27.1771H162.293C162.236 27.1771 162.208 27.1201 162.208 27.0062C162.208 26.8922 162.236 26.8353 162.293 26.8353C163.015 26.8163 163.641 26.6264 164.173 26.2656C164.705 25.8858 165.227 25.3256 165.74 24.585C166.271 23.8445 166.851 22.9235 167.477 21.8221C168.047 20.8157 168.579 20.0371 169.072 19.4865C169.566 18.9168 170.088 18.5085 170.639 18.2617C171.209 18.0148 171.835 17.8629 172.519 17.8059L172.718 18.0053C170.667 17.9863 169.12 17.5875 168.075 16.809C167.031 16.0304 166.509 14.986 166.509 13.6758C166.509 12.8023 166.727 12.0427 167.164 11.3971C167.62 10.7324 168.237 10.2197 169.015 9.85895C169.813 9.47916 170.705 9.28927 171.693 9.28927C172.092 9.28927 172.623 9.31776 173.288 9.37472C173.953 9.43169 174.522 9.46017 174.997 9.46017C175.624 9.46017 176.222 9.45068 176.791 9.43169C177.361 9.39371 177.883 9.37472 178.358 9.37472C178.396 9.37472 178.415 9.43169 178.415 9.54563C178.415 9.65956 178.396 9.71653 178.358 9.71653C177.655 9.71653 177.124 9.7735 176.763 9.88743C176.421 9.98238 176.184 10.1723 176.051 10.4571C175.937 10.723 175.88 11.1312 175.88 11.6819V24.8699C175.88 25.4206 175.937 25.8383 176.051 26.1232C176.184 26.408 176.431 26.5979 176.791 26.6928C177.152 26.7878 177.684 26.8353 178.387 26.8353ZM168.417 12.9637C168.417 14.2929 168.797 15.3943 169.557 16.2678C170.335 17.1223 171.484 17.5496 173.003 17.5496C173.25 17.5496 173.535 17.5401 173.858 17.5211C174.18 17.4831 174.437 17.4356 174.627 17.3787L174.057 17.578V11.7389C174.057 11.1882 173.934 10.7609 173.687 10.4571C173.459 10.1533 173.155 9.9444 172.775 9.83046C172.414 9.71653 172.044 9.65956 171.664 9.65956C169.5 9.65956 168.417 10.7609 168.417 12.9637ZM85.6037 55.8353C85.7746 55.8353 85.8695 55.8542 85.8885 55.8922C85.9265 55.9112 85.9455 56.0062 85.9455 56.1771C85.9455 56.4429 85.917 56.7277 85.86 57.0316C85.822 57.3544 85.7841 57.8101 85.7461 58.3988C85.7081 58.9875 85.6891 59.823 85.6891 60.9054C85.6891 60.9813 85.6322 61.0193 85.5182 61.0193C85.4043 61.0193 85.3473 60.9813 85.3473 60.9054C85.3473 59.2913 84.9865 58.095 84.2649 57.3164C83.5623 56.5568 82.3945 56.1771 80.7614 56.1771H71.846C71.1054 56.1771 70.4408 56.31 69.8522 56.5758C69.2825 56.8607 68.8362 57.3449 68.5134 58.0285C68.1906 58.7311 68.0292 59.6901 68.0292 60.9054C68.0292 60.9813 67.9722 61.0193 67.8583 61.0193C67.7444 61.0193 67.6874 60.9813 67.6874 60.9054C67.6874 60.1078 67.6684 59.4527 67.6304 58.94C67.6114 58.4273 67.5735 58.0095 67.5165 57.6867C67.4785 57.3639 67.4405 57.0885 67.4026 56.8607C67.3836 56.6328 67.3741 56.3954 67.3741 56.1486C67.3741 55.9967 67.3836 55.9017 67.4026 55.8637C67.4405 55.8258 67.526 55.8068 67.6589 55.8068C68.4754 55.8068 69.197 55.5409 69.8237 55.0092C70.4693 54.4585 71.039 53.737 71.5327 52.8445C72.0454 51.952 72.4822 50.9645 72.843 49.8822C73.2227 48.7998 73.5266 47.7079 73.7544 46.6065C73.9823 45.4862 74.1532 44.4418 74.2671 43.4733C74.3811 42.4859 74.438 41.6598 74.438 40.9952C74.438 40.5395 74.3811 40.1407 74.2671 39.7989C74.1532 39.4571 73.8874 39.1913 73.4696 39.0014C73.0708 38.8115 72.4252 38.7165 71.5327 38.7165C71.4947 38.7165 71.4757 38.6596 71.4757 38.5456C71.4757 38.4317 71.4947 38.3747 71.5327 38.3747C71.6466 38.3747 71.96 38.3747 72.4727 38.3747C73.0044 38.3747 73.669 38.3747 74.4665 38.3747C75.2641 38.3747 76.1186 38.3747 77.0301 38.3747C77.9605 38.3747 78.8815 38.3747 79.793 38.3747C80.7045 38.3747 81.5495 38.3747 82.328 38.3747C83.1066 38.3747 83.7427 38.3747 84.2365 38.3747C84.7302 38.3747 85.015 38.3747 85.091 38.3747C85.1289 38.3747 85.1479 38.4317 85.1479 38.5456C85.1479 38.6596 85.1289 38.7165 85.091 38.7165C84.3884 38.7165 83.8567 38.7735 83.4959 38.8874C83.1351 38.9824 82.8977 39.1723 82.7838 39.4571C82.6698 39.723 82.6129 40.1312 82.6129 40.6819V53.8699C82.6129 54.3446 82.6224 54.7244 82.6414 55.0092C82.6793 55.2751 82.7838 55.465 82.9547 55.5789C83.1256 55.6928 83.4104 55.7688 83.8092 55.8068C84.227 55.8258 84.8251 55.8353 85.6037 55.8353ZM80.7614 53.8129V40.7389C80.7614 40.1502 80.7235 39.7419 80.6475 39.5141C80.5905 39.2672 80.4101 39.1248 80.1063 39.0868C79.8025 39.0298 79.2803 39.0014 78.5397 39.0014H77.144C76.5933 39.0014 76.1945 39.0868 75.9477 39.2577C75.7008 39.4286 75.5394 39.7514 75.4635 40.2262C75.3875 40.7009 75.3115 41.4035 75.2356 42.334C75.1976 42.6758 75.1311 43.198 75.0362 43.9006C74.9413 44.6032 74.7988 45.4007 74.6089 46.2932C74.438 47.1857 74.2197 48.1257 73.9538 49.1131C73.688 50.0815 73.3747 51.0215 73.0139 51.933C72.6531 52.8445 72.2353 53.6515 71.7606 54.3541C71.2858 55.0377 70.7447 55.5599 70.137 55.9207V55.5504H78.3973C79.1758 55.5504 79.7265 55.5219 80.0493 55.465C80.3911 55.408 80.5905 55.2656 80.6475 55.0377C80.7235 54.7909 80.7614 54.3826 80.7614 53.8129ZM99.8531 56.1771H87.9184C87.8804 56.1771 87.8615 56.1201 87.8615 56.0062C87.8615 55.8922 87.8804 55.8353 87.9184 55.8353C88.621 55.8353 89.1432 55.7878 89.485 55.6928C89.8268 55.5979 90.0547 55.408 90.1686 55.1232C90.3016 54.8383 90.368 54.4206 90.368 53.8699V40.6819C90.368 40.1312 90.3016 39.723 90.1686 39.4571C90.0547 39.1723 89.8268 38.9824 89.485 38.8874C89.1432 38.7735 88.621 38.7165 87.9184 38.7165C87.8804 38.7165 87.8615 38.6596 87.8615 38.5456C87.8615 38.4317 87.8804 38.3747 87.9184 38.3747H99.3689C99.5398 38.3747 99.6252 38.4602 99.6252 38.6311L99.6822 42.1346C99.6822 42.1915 99.6252 42.2295 99.5113 42.2485C99.4164 42.2485 99.3689 42.22 99.3689 42.1631C99.3119 41.1376 98.9986 40.3496 98.4289 39.7989C97.8782 39.2482 97.1566 38.9729 96.2642 38.9729H94.5266C93.881 38.9729 93.3873 39.0204 93.0455 39.1153C92.7227 39.2102 92.4948 39.3906 92.3619 39.6565C92.248 39.9223 92.191 40.3116 92.191 40.8243V53.7559C92.191 54.2497 92.248 54.6294 92.3619 54.8953C92.4948 55.1611 92.7132 55.3415 93.017 55.4365C93.3398 55.5314 93.8146 55.5789 94.4412 55.5789H96.7199C97.6314 55.5789 98.3909 55.2561 98.9986 54.6105C99.6252 53.9458 100.034 53.0533 100.223 51.933C100.223 51.876 100.28 51.857 100.394 51.876C100.508 51.895 100.565 51.933 100.565 51.99C100.489 52.4837 100.423 53.0818 100.366 53.7844C100.328 54.487 100.309 55.1422 100.309 55.7498C100.309 56.0346 100.157 56.1771 99.8531 56.1771ZM98.258 49.5404C98.258 48.7048 98.0491 48.1067 97.6314 47.7459C97.2326 47.3851 96.5585 47.2047 95.609 47.2047H91.3365V46.6065H95.6945C96.606 46.6065 97.2516 46.4546 97.6314 46.1508C98.0302 45.828 98.2295 45.3153 98.2295 44.6127C98.2295 44.5747 98.2865 44.5557 98.4004 44.5557C98.5144 44.5557 98.5713 44.5747 98.5713 44.6127C98.5713 45.1823 98.5618 45.6286 98.5429 45.9514C98.5429 46.2552 98.5429 46.578 98.5429 46.9198C98.5429 47.3566 98.5524 47.7839 98.5713 48.2016C98.5903 48.6194 98.5998 49.0656 98.5998 49.5404C98.5998 49.5783 98.5429 49.5973 98.4289 49.5973C98.315 49.5973 98.258 49.5783 98.258 49.5404ZM116.861 56.1771C116.69 56.1771 116.529 56.1486 116.377 56.0916C116.225 56.0346 116.025 55.8637 115.779 55.5789C115.532 55.2941 115.171 54.8288 114.696 54.1832C114.222 53.5186 113.566 52.5881 112.731 51.3918C112.142 50.5373 111.639 49.8347 111.221 49.284C110.822 48.7333 110.452 48.3155 110.11 48.0307C109.788 47.7269 109.436 47.518 109.056 47.4041C108.677 47.2711 108.211 47.2047 107.661 47.2047C107.471 47.2047 107.271 47.2142 107.063 47.2332C106.854 47.2522 106.645 47.2711 106.436 47.2901L106.407 46.7774C107.604 46.7205 108.534 46.692 109.199 46.692C109.826 46.692 110.338 46.7489 110.737 46.8629C111.155 46.9578 111.525 47.1572 111.848 47.461C112.19 47.7459 112.56 48.1636 112.959 48.7143C113.377 49.246 113.899 49.9486 114.525 50.8221C115.285 51.8855 115.959 52.7875 116.548 53.5281C117.155 54.2687 117.763 54.8383 118.371 55.2371C118.978 55.6169 119.671 55.8163 120.45 55.8353C120.488 55.8353 120.507 55.8922 120.507 56.0062C120.507 56.1201 120.488 56.1771 120.45 56.1771H116.861ZM102.961 56.1771C102.923 56.1771 102.904 56.1201 102.904 56.0062C102.904 55.8922 102.923 55.8353 102.961 55.8353C103.664 55.8353 104.195 55.7878 104.556 55.6928C104.917 55.5979 105.154 55.408 105.268 55.1232C105.382 54.8383 105.439 54.4206 105.439 53.8699V40.6819C105.439 40.1312 105.382 39.723 105.268 39.4571C105.154 39.1723 104.917 38.9824 104.556 38.8874C104.214 38.7735 103.692 38.7165 102.989 38.7165C102.951 38.7165 102.932 38.6596 102.932 38.5456C102.932 38.4317 102.951 38.3747 102.989 38.3747C103.445 38.3747 103.958 38.3937 104.528 38.4317C105.097 38.4507 105.695 38.4602 106.322 38.4602C107.006 38.4602 107.632 38.4507 108.202 38.4317C108.791 38.3937 109.313 38.3747 109.769 38.3747C109.807 38.3747 109.826 38.4317 109.826 38.5456C109.826 38.6596 109.807 38.7165 109.769 38.7165C109.066 38.7165 108.534 38.7735 108.173 38.8874C107.832 39.0014 107.594 39.2008 107.461 39.4856C107.347 39.7704 107.29 40.1882 107.29 40.7389V53.8699C107.29 54.4206 107.347 54.8383 107.461 55.1232C107.575 55.408 107.813 55.5979 108.173 55.6928C108.534 55.7878 109.066 55.8353 109.769 55.8353C109.807 55.8353 109.826 55.8922 109.826 56.0062C109.826 56.1201 109.807 56.1771 109.769 56.1771C109.294 56.1771 108.772 56.1676 108.202 56.1486C107.632 56.1296 107.006 56.1201 106.322 56.1201C105.695 56.1201 105.088 56.1296 104.499 56.1486C103.929 56.1676 103.417 56.1771 102.961 56.1771ZM110.11 47.1477L109.598 46.8914L113.187 41.8782C114.079 40.6629 114.506 39.8369 114.468 39.4001C114.449 38.9444 113.965 38.7165 113.016 38.7165C112.978 38.7165 112.959 38.6596 112.959 38.5456C112.959 38.4317 112.978 38.3747 113.016 38.3747C113.471 38.3747 113.937 38.3937 114.411 38.4317C114.886 38.4507 115.503 38.4602 116.263 38.4602C117.022 38.4602 117.611 38.4507 118.029 38.4317C118.466 38.3937 118.883 38.3747 119.282 38.3747C119.339 38.3747 119.368 38.4317 119.368 38.5456C119.368 38.6596 119.339 38.7165 119.282 38.7165C118.618 38.7165 118.01 38.8305 117.459 39.0583C116.908 39.2672 116.367 39.609 115.836 40.0837C115.323 40.5395 114.782 41.1471 114.212 41.9067L110.11 47.1477ZM130.136 56.5189C128.769 56.5189 127.525 56.2815 126.405 55.8068C125.304 55.3131 124.354 54.6389 123.557 53.7844C122.778 52.9299 122.17 51.952 121.734 50.8506C121.316 49.7302 121.107 48.5434 121.107 47.2901C121.107 45.752 121.401 44.4038 121.99 43.2454C122.598 42.0871 123.395 41.1282 124.383 40.3686C125.37 39.59 126.453 39.0109 127.63 38.6311C128.807 38.2513 129.975 38.0614 131.133 38.0614C132.539 38.0614 133.792 38.3178 134.893 38.8305C136.014 39.3242 136.963 39.9983 137.742 40.8528C138.52 41.7073 139.109 42.6758 139.508 43.7582C139.925 44.8405 140.134 45.9514 140.134 47.0907C140.134 48.42 139.868 49.6543 139.337 50.7936C138.805 51.933 138.074 52.9299 137.143 53.7844C136.232 54.6389 135.169 55.3131 133.953 55.8068C132.757 56.2815 131.485 56.5189 130.136 56.5189ZM131.133 55.9207C132.425 55.9207 133.583 55.6169 134.608 55.0092C135.634 54.3826 136.45 53.4711 137.058 52.2748C137.666 51.0785 137.969 49.6163 137.969 47.8883C137.969 46.1033 137.637 44.5272 136.973 43.16C136.327 41.7738 135.396 40.6914 134.181 39.9128C132.985 39.1153 131.57 38.7165 129.937 38.7165C127.829 38.7165 126.187 39.4001 125.009 40.7674C123.851 42.1156 123.272 43.9575 123.272 46.2932C123.272 47.6414 123.452 48.9042 123.813 50.0815C124.193 51.2399 124.734 52.2653 125.437 53.1578C126.139 54.0313 126.975 54.7149 127.943 55.2086C128.912 55.6833 129.975 55.9207 131.133 55.9207ZM146.988 53.7559C146.988 54.3256 147.064 54.7624 147.216 55.0662C147.368 55.351 147.691 55.5504 148.184 55.6644C148.678 55.7783 149.409 55.8353 150.378 55.8353C150.435 55.8353 150.463 55.8922 150.463 56.0062C150.463 56.1201 150.435 56.1771 150.378 56.1771C149.77 56.1771 149.105 56.1676 148.384 56.1486C147.681 56.1296 146.912 56.1201 146.077 56.1201C145.45 56.1201 144.842 56.1296 144.254 56.1486C143.684 56.1676 143.171 56.1771 142.716 56.1771C142.678 56.1771 142.659 56.1201 142.659 56.0062C142.659 55.8922 142.678 55.8353 142.716 55.8353C143.418 55.8353 143.94 55.7878 144.282 55.6928C144.624 55.5979 144.852 55.408 144.966 55.1232C145.08 54.8383 145.137 54.4206 145.137 53.8699V40.6819C145.137 40.1312 145.08 39.723 144.966 39.4571C144.852 39.1723 144.624 38.9824 144.282 38.8874C143.94 38.7735 143.418 38.7165 142.716 38.7165C142.678 38.7165 142.659 38.6596 142.659 38.5456C142.659 38.4317 142.678 38.3747 142.716 38.3747C143.171 38.3747 143.684 38.3937 144.254 38.4317C144.823 38.4507 145.422 38.4602 146.048 38.4602C146.542 38.4602 147.14 38.4317 147.843 38.3747C148.564 38.3178 149.286 38.2893 150.007 38.2893C151.09 38.2893 152.058 38.4507 152.913 38.7735C153.786 39.0963 154.479 39.5995 154.992 40.2831C155.505 40.9667 155.771 41.8592 155.79 42.9606C155.79 43.967 155.6 44.831 155.22 45.5526C154.859 46.2742 154.365 46.8724 153.739 47.3471C153.131 47.8028 152.457 48.1446 151.716 48.3725C150.976 48.6004 150.235 48.7143 149.495 48.7143C149.267 48.7143 149.029 48.7048 148.783 48.6858C148.555 48.6668 148.336 48.6289 148.127 48.5719C148.052 48.5529 148.023 48.4865 148.042 48.3725C148.08 48.2396 148.127 48.1826 148.184 48.2016C148.355 48.2396 148.526 48.2681 148.697 48.2871C148.887 48.3061 149.058 48.3155 149.21 48.3155C149.988 48.3155 150.72 48.1446 151.403 47.8028C152.087 47.461 152.637 46.9388 153.055 46.2362C153.473 45.5146 153.682 44.6222 153.682 43.5588C153.682 42.5144 153.492 41.6409 153.112 40.9383C152.732 40.2167 152.21 39.666 151.546 39.2862C150.881 38.9064 150.14 38.7165 149.324 38.7165C148.697 38.7165 148.213 38.7545 147.871 38.8305C147.548 38.8874 147.32 39.0583 147.188 39.3432C147.055 39.628 146.988 40.0932 146.988 40.7389V53.7559ZM161.8 46.7489L162.228 46.1508H168.095L168.295 46.7489H161.8ZM175.643 55.8353C175.719 55.8353 175.757 55.8922 175.757 56.0062C175.757 56.1201 175.719 56.1771 175.643 56.1771C175.093 56.1771 174.533 56.1581 173.963 56.1201C173.393 56.0821 172.843 56.0631 172.311 56.0631C171.722 56.0631 171.209 56.0821 170.773 56.1201C170.336 56.1581 169.852 56.1771 169.32 56.1771C169.244 56.1771 169.206 56.1201 169.206 56.0062C169.206 55.8922 169.244 55.8353 169.32 55.8353C170.326 55.8353 170.953 55.6928 171.2 55.408C171.447 55.1042 171.38 54.544 171.001 53.7275L164.677 40.3686L165.389 39.4856L159.863 52.5596C159.389 53.718 159.36 54.5535 159.778 55.0662C160.196 55.5789 161.022 55.8353 162.256 55.8353C162.351 55.8353 162.399 55.8922 162.399 56.0062C162.399 56.1201 162.351 56.1771 162.256 56.1771C161.686 56.1771 161.164 56.1581 160.689 56.1201C160.215 56.0821 159.617 56.0631 158.895 56.0631C158.211 56.0631 157.661 56.0821 157.243 56.1201C156.844 56.1581 156.35 56.1771 155.762 56.1771C155.686 56.1771 155.648 56.1201 155.648 56.0062C155.648 55.8922 155.686 55.8353 155.762 55.8353C156.275 55.8353 156.721 55.7403 157.101 55.5504C157.48 55.3415 157.832 54.9902 158.154 54.4965C158.496 53.9838 158.867 53.2527 159.265 52.3033L165.275 38.1184C165.313 38.0614 165.38 38.0329 165.475 38.0329C165.57 38.0329 165.627 38.0614 165.646 38.1184L172.368 52.2748C172.805 53.2053 173.194 53.9363 173.536 54.468C173.877 54.9807 174.21 55.3415 174.533 55.5504C174.874 55.7403 175.245 55.8353 175.643 55.8353Z" fill="#F8F7F6"></path><path d="M19.7281 33.2276H9.14754V55.3977H30.9534V59.2793H4.55676V4.93652H30.7668V8.85548H9.14754V29.346H19.7281V33.2276Z" fill="#F8F7F6"></path><path d="M38.0682 31.5767C38.0682 31.8823 38.1923 32.035 38.4405 32.035C38.8893 32.035 39.486 31.2855 40.2307 29.7865C40.2594 29.7292 40.2832 29.672 40.3023 29.6147C40.331 29.5574 40.3692 29.5192 40.4169 29.5001C40.4742 29.481 40.5124 29.4953 40.5315 29.5431C40.5506 29.5813 40.541 29.6481 40.5028 29.7436C39.739 31.5194 38.9656 32.4074 38.1827 32.4074C37.9249 32.4074 37.7197 32.2928 37.5669 32.0637C37.4141 31.8345 37.3378 31.6101 37.3378 31.3905C37.3378 31.1614 37.3616 30.9514 37.4094 30.7604C36.8556 31.677 36.3782 32.1973 35.9772 32.3214C35.8626 32.3692 35.7481 32.3931 35.6335 32.3931C35.5285 32.3931 35.4234 32.3787 35.3184 32.3501C34.8506 32.226 34.6167 31.8536 34.6167 31.233C34.6167 30.8129 34.7217 30.3498 34.9317 29.8438C35.1513 29.3282 35.4569 28.8365 35.8483 28.3687C36.2398 27.9009 36.7124 27.5858 37.2662 27.4235C37.4667 27.3566 37.7006 27.3232 37.9679 27.3232C38.2448 27.3232 38.5503 27.4092 38.8845 27.581C39.5337 26.3589 40.0875 25.2275 40.5458 24.1868C40.6795 23.8717 40.8083 23.6712 40.9325 23.5853C41.0661 23.4898 41.1855 23.4421 41.2905 23.4421C41.4051 23.4421 41.4719 23.4421 41.491 23.4421C41.5197 23.4421 41.6104 23.4564 41.7631 23.485C41.9254 23.5041 42.0496 23.5089 42.1355 23.4994C41.9159 23.6999 41.3335 24.6737 40.3883 26.421C39.1852 28.6551 38.4596 30.1446 38.2114 30.8893C38.1159 31.1662 38.0682 31.3953 38.0682 31.5767ZM38.7699 27.8102C38.6458 27.686 38.4692 27.624 38.24 27.624C38.0204 27.624 37.7101 27.7911 37.3091 28.1252C36.6694 28.6599 36.1395 29.3187 35.7194 30.1016C35.4425 30.6172 35.3041 31.0421 35.3041 31.3762C35.3041 31.529 35.3327 31.6674 35.39 31.7916C35.4569 31.9157 35.5571 31.9777 35.6908 31.9777C36.0154 31.9777 36.4164 31.6436 36.8938 30.9752C37.3712 30.3069 37.9966 29.2519 38.7699 27.8102ZM40.9352 30.2019C40.8015 30.5265 40.7347 30.8893 40.7347 31.2903C40.7347 31.5576 40.7919 31.7725 40.9065 31.9348C41.0306 32.0875 41.2025 32.1639 41.4221 32.1639C42.2909 32.1639 43.0786 31.3476 43.7851 29.7149C43.852 29.5622 43.9331 29.4953 44.0286 29.5144C44.0668 29.524 44.0859 29.5478 44.0859 29.586C44.0859 29.6242 43.9761 29.8772 43.7565 30.3451C43.5465 30.8034 43.3316 31.1757 43.112 31.4622C42.6251 32.1305 42.0236 32.4647 41.3075 32.4647C40.9256 32.4647 40.601 32.3405 40.3336 32.0923C40.0663 31.8441 39.9326 31.5051 39.9326 31.0755C39.9326 30.6458 40.0329 30.1923 40.2334 29.7149C40.4434 29.228 40.7251 28.7793 41.0784 28.3687C41.4316 27.9486 41.8374 27.6431 42.2957 27.4521C42.5153 27.3566 42.7253 27.3089 42.9259 27.3089C43.1264 27.3089 43.3125 27.3662 43.4844 27.4808C43.6467 27.6144 43.7279 27.7624 43.7279 27.9247C43.7279 28.4976 43.3841 29.0466 42.6967 29.5717C42.4867 29.734 42.1907 29.882 41.8088 30.0157C41.4269 30.1398 41.1357 30.2019 40.9352 30.2019ZM43.3412 27.9104C43.3412 27.7195 43.2648 27.624 43.112 27.624C42.8447 27.624 42.4389 27.9534 41.8947 28.6122C41.5701 29.0132 41.2836 29.4619 41.0354 29.9584C41.1977 29.9584 41.4316 29.9011 41.7372 29.7865C42.0522 29.672 42.3243 29.5192 42.5535 29.3282C43.0786 28.8795 43.3412 28.4069 43.3412 27.9104ZM46.4646 29.1134C46.7988 28.7124 46.9659 28.3735 46.9659 28.0966C46.9659 27.8197 46.8513 27.6813 46.6222 27.6813C46.1734 27.6813 45.6626 28.0918 45.0897 28.9129C44.9083 29.1707 44.7317 29.5097 44.5599 29.9297C44.388 30.3498 44.3021 30.7318 44.3021 31.0755C44.3021 31.4096 44.3689 31.6818 44.5026 31.8918C44.6458 32.1019 44.8606 32.2069 45.147 32.2069C45.443 32.2069 45.7151 32.14 45.9634 32.0064C46.2116 31.8632 46.4455 31.6436 46.6651 31.3476C46.8943 31.0421 47.0661 30.789 47.1807 30.5885C47.2953 30.388 47.4528 30.0873 47.6533 29.6863C47.7201 29.5526 47.7774 29.5001 47.8252 29.5287C47.8729 29.5478 47.8968 29.5813 47.8968 29.629C47.8968 29.6672 47.8299 29.8247 47.6963 30.1016C47.5722 30.3689 47.4433 30.622 47.3096 30.8607C47.1855 31.0993 47.0041 31.3667 46.7654 31.6627C46.3357 32.1973 45.7485 32.4647 45.0038 32.4647C44.4691 32.4647 44.0825 32.3358 43.8438 32.078C43.6146 31.8106 43.5001 31.5051 43.5001 31.1614C43.5001 30.7413 43.6003 30.283 43.8008 29.7865C44.0109 29.2901 44.2496 28.8604 44.5169 28.4976C45.0707 27.7433 45.7103 27.3662 46.436 27.3662C46.7892 27.3662 47.0423 27.4521 47.195 27.624C47.3573 27.7863 47.4385 27.9772 47.4385 28.1968C47.4385 28.5215 47.3048 28.7983 47.0375 29.0275C46.9038 29.1516 46.7892 29.2137 46.6938 29.2137C46.6078 29.2137 46.5315 29.1803 46.4646 29.1134ZM50.1562 27.3948C50.8532 27.3948 51.2017 27.834 51.2017 28.7124C51.2017 29.1134 51.0967 29.5431 50.8866 30.0014C50.6193 30.622 50.2183 31.1853 49.6836 31.6913C49.8077 31.93 50.0321 32.0493 50.3567 32.0493C50.6145 32.0493 50.858 31.9204 51.0871 31.6627C51.3736 31.3667 51.5788 31.1089 51.703 30.8893C51.8271 30.6601 51.9178 30.4931 51.9751 30.388C52.0323 30.283 52.104 30.135 52.1899 29.9441C52.2854 29.7436 52.3426 29.6242 52.3617 29.586C52.3808 29.5383 52.4143 29.5144 52.462 29.5144C52.5575 29.5049 52.6052 29.5383 52.6052 29.6147C52.6052 29.6433 52.5957 29.6767 52.5766 29.7149L52.4906 29.9154C52.4334 30.0491 52.3904 30.1446 52.3617 30.2019C52.3331 30.2591 52.2806 30.3642 52.2042 30.5169C52.1374 30.6601 52.0753 30.7747 52.018 30.8607C51.9703 30.9466 51.8987 31.0612 51.8032 31.2044C51.7173 31.3476 51.6361 31.4622 51.5597 31.5481C51.4929 31.634 51.407 31.7295 51.3019 31.8345C51.1969 31.9395 51.0967 32.0207 51.0012 32.078C50.7625 32.2212 50.5381 32.2928 50.3281 32.2928C49.9366 32.2928 49.6311 32.1687 49.4115 31.9204C48.9723 32.2451 48.5665 32.4074 48.1942 32.4074C47.4972 32.4074 47.1487 31.9682 47.1487 31.0898C47.1487 30.6888 47.2537 30.2591 47.4638 29.8009C47.7502 29.1325 48.1512 28.5644 48.6668 28.0966C49.1919 27.6288 49.6884 27.3948 50.1562 27.3948ZM50.3138 27.8388C50.056 27.8388 49.7504 28.0107 49.3972 28.3544C49.0439 28.6981 48.7288 29.1659 48.452 29.7579C48.1178 30.4453 47.9507 31.0086 47.9507 31.4478C47.9507 31.887 48.1178 32.1066 48.452 32.1066C48.6907 32.1066 48.958 31.9777 49.254 31.7199C49.1012 31.5003 49.0248 31.2664 49.0248 31.0182C49.0439 30.6076 49.211 30.4024 49.5261 30.4024C49.6502 30.4024 49.7504 30.4453 49.8268 30.5313C49.9128 30.6172 49.9557 30.6983 49.9557 30.7747C49.9557 30.8416 49.9462 30.9132 49.9271 30.9895C50.0894 30.7509 50.2756 30.4119 50.4856 29.9727C50.7243 29.4858 50.8437 29.0084 50.8437 28.5406C50.8437 28.0727 50.667 27.8388 50.3138 27.8388ZM54.2803 26.6644C54.2803 27.0941 54.0082 27.4999 53.4639 27.8818C53.6549 27.8913 53.9079 27.8961 54.223 27.8961C54.5476 27.8961 54.9534 27.8722 55.4403 27.8245C55.4594 27.8531 55.469 27.9295 55.469 28.0536C55.469 28.1777 55.4117 28.3639 55.2971 28.6122C55.1825 28.8509 55.0775 29.0609 54.982 29.2423C54.8961 29.4142 54.8102 29.5813 54.7242 29.7436C54.6479 29.8963 54.5572 30.0873 54.4521 30.3164C54.3567 30.5456 54.2755 30.7556 54.2087 30.9466C53.97 31.6722 54.0082 32.035 54.3232 32.035C54.7242 32.035 55.3162 31.2378 56.0991 29.6433C56.1659 29.5192 56.2185 29.4715 56.2566 29.5001C56.3044 29.5287 56.3283 29.5669 56.3283 29.6147C56.3283 29.6529 56.2662 29.8009 56.1421 30.0586C56.018 30.3069 55.8843 30.5647 55.7411 30.832C55.5979 31.0993 55.3735 31.4096 55.068 31.7629C54.7051 32.2021 54.3567 32.4217 54.0225 32.4217C53.6501 32.4217 53.3923 32.1973 53.2491 31.7486C53.2205 31.6627 53.2062 31.5338 53.2062 31.3619C53.2062 31.19 53.2587 30.9609 53.3637 30.6745C53.4783 30.388 53.6549 30.0395 53.8936 29.629C54.1323 29.2184 54.266 28.9798 54.2946 28.9129C54.3232 28.8365 54.3376 28.7649 54.3376 28.6981C54.3376 28.4021 53.9556 28.2446 53.1918 28.2255L53.02 28.6838C52.4185 30.2591 51.8408 31.3142 51.2871 31.8488C51.1916 31.9348 51.1439 31.9061 51.1439 31.7629C51.1439 31.7343 51.1534 31.7008 51.1725 31.6627C51.7072 30.9561 52.1702 30.1207 52.5617 29.1564C52.9531 28.1921 53.2253 27.2755 53.378 26.4066C53.4353 26.1107 53.569 25.9627 53.779 25.9627C53.9891 25.9627 54.1418 26.0963 54.2373 26.3637C54.266 26.4496 54.2803 26.5499 54.2803 26.6644Z" fill="#D1B8B8"></path><path d="M44.764 26.9355L38.8293 9.13156L29.779 33.1669L20.8341 59.2793H16.0194L36.5846 4.93652H40.9514L49.2766 26.9355H44.764Z" fill="#D1B8B8"></path><path d="M34.23 33.4636V37.3211H48.4158L56.7392 59.2793H61.5166L51.7471 33.4636H34.23Z" fill="#F8F7F6"></path><rect x="0.33667" y="0.33667" width="184.636" height="64.6406" stroke="#F8F7F6" stroke-width="0.67334"></rect></svg> 