<?xml version="1.0" encoding="UTF-8"?> <svg xmlns="http://www.w3.org/2000/svg" width="213" height="75" viewBox="0 0 213 75" fill="none"><path d="M90.0791 11.0366C91.0795 11.0366 92.1125 11.1345 93.1781 11.3302C94.2655 11.526 95.1354 11.8087 95.7878 12.1784C95.9835 12.2871 96.1031 12.385 96.1466 12.472C96.2119 12.559 96.2554 12.7221 96.2771 12.9613L96.636 16.6149C96.636 16.6584 96.5816 16.7019 96.4729 16.7454C96.3641 16.7671 96.2989 16.7345 96.2771 16.6475C95.7769 14.886 94.8635 13.6355 93.5369 12.8961C92.2103 12.1349 90.6336 11.7543 88.8068 11.7543C87.1323 11.7543 85.6752 12.124 84.4356 12.8634C83.2177 13.5811 82.2717 14.6032 81.5975 15.9299C80.9233 17.2347 80.5863 18.7679 80.5863 20.5295C80.5863 22.0735 80.8255 23.5306 81.3039 24.9007C81.7824 26.2491 82.4457 27.4343 83.2938 28.4565C84.1637 29.4786 85.1532 30.2833 86.2624 30.8704C87.3932 31.4359 88.5894 31.7186 89.8507 31.7186C91.3731 31.7186 92.7105 31.3054 93.8631 30.479C95.0375 29.6308 95.94 28.2934 96.5707 26.4666C96.5925 26.3796 96.6577 26.3578 96.7665 26.4013C96.8969 26.4231 96.9622 26.4557 96.9622 26.4992L96.5055 30.1854C96.462 30.4464 96.4076 30.6203 96.3424 30.7073C96.2989 30.7726 96.1793 30.8487 95.9835 30.9357C94.9397 31.3706 93.9066 31.686 92.8845 31.8817C91.8624 32.0774 90.8294 32.1753 89.7855 32.1753C87.7195 32.1753 85.947 31.86 84.4682 31.2293C82.9894 30.5768 81.7824 29.7287 80.8472 28.6848C79.9121 27.6192 79.227 26.4557 78.7921 25.1943C78.3571 23.9112 78.1397 22.6499 78.1397 21.4102C78.1397 19.8444 78.4659 18.4308 79.1183 17.1695C79.7707 15.9081 80.6624 14.8207 81.7932 13.9073C82.9241 12.9939 84.1964 12.2871 85.6099 11.7869C87.0453 11.2867 88.535 11.0366 90.0791 11.0366Z" fill="#322828"></path><path d="M104.496 11.9827C103.148 11.9827 102.125 12.3306 101.43 13.0266C100.755 13.7225 100.266 14.9077 99.9616 16.5823C99.9616 16.6258 99.8963 16.6475 99.7658 16.6475C99.6571 16.6475 99.6027 16.6258 99.6027 16.5823C99.6462 16.2996 99.6897 15.9081 99.7332 15.4079C99.7767 14.886 99.8202 14.3314 99.8637 13.7442C99.9289 13.157 99.9724 12.5916 99.9942 12.0479C100.038 11.4825 100.059 11.0258 100.059 10.6778C100.059 10.5691 100.114 10.5147 100.223 10.5147C100.353 10.5147 100.418 10.5691 100.418 10.6778C100.418 10.8953 100.527 11.0584 100.744 11.1671C100.962 11.2541 101.201 11.3194 101.462 11.3629C101.745 11.3846 101.984 11.3955 102.18 11.3955C104.05 11.4607 106.236 11.4933 108.737 11.4933C110.281 11.4933 111.499 11.4825 112.39 11.4607C113.304 11.4172 114.184 11.3955 115.033 11.3955C115.772 11.3955 116.337 11.352 116.729 11.265C117.142 11.1563 117.403 10.9279 117.512 10.5799C117.534 10.493 117.599 10.4495 117.708 10.4495C117.816 10.4495 117.871 10.493 117.871 10.5799C117.849 10.9062 117.816 11.352 117.773 11.9174C117.729 12.4829 117.697 13.07 117.675 13.679C117.653 14.2879 117.631 14.8533 117.61 15.3753C117.588 15.8972 117.577 16.2996 117.577 16.5823C117.577 16.6258 117.512 16.6475 117.381 16.6475C117.251 16.6475 117.186 16.6258 117.186 16.5823C117.12 14.886 116.772 13.7007 116.142 13.0266C115.511 12.3306 114.467 11.9827 113.01 11.9827C112.097 11.9827 111.412 12.0262 110.955 12.1132C110.498 12.2001 110.194 12.3959 110.042 12.7003C109.911 12.9831 109.846 13.4506 109.846 14.1031V29.1415C109.846 29.7722 109.922 30.2506 110.074 30.5768C110.226 30.9031 110.52 31.1205 110.955 31.2293C111.412 31.338 112.097 31.3924 113.01 31.3924C113.075 31.3924 113.108 31.4576 113.108 31.5881C113.108 31.7186 113.075 31.7838 113.01 31.7838C112.445 31.7838 111.803 31.773 111.085 31.7512C110.368 31.7295 109.585 31.7186 108.737 31.7186C107.932 31.7186 107.171 31.7295 106.453 31.7512C105.736 31.773 105.083 31.7838 104.496 31.7838C104.452 31.7838 104.431 31.7186 104.431 31.5881C104.431 31.4576 104.452 31.3924 104.496 31.3924C105.388 31.3924 106.062 31.338 106.518 31.2293C106.997 31.1205 107.312 30.9031 107.464 30.5768C107.617 30.2506 107.693 29.7722 107.693 29.1415V14.0378C107.693 13.3854 107.617 12.9178 107.464 12.6351C107.312 12.3306 107.008 12.1458 106.551 12.0805C106.094 12.0153 105.409 11.9827 104.496 11.9827Z" fill="#322828"></path><path d="M125.954 32.1753C125.345 32.1753 124.801 32.0339 124.323 31.7512C123.866 31.4685 123.638 31.0553 123.638 30.5116C123.638 30.1636 123.757 29.8592 123.997 29.5982C124.236 29.3155 124.573 29.1741 125.008 29.1741C125.378 29.1741 125.649 29.272 125.823 29.4677C126.019 29.6417 126.161 29.8483 126.247 30.0875C126.356 30.3267 126.465 30.5442 126.574 30.74C126.704 30.9357 126.867 31.0335 127.063 31.0335C127.281 31.0335 127.487 30.9357 127.683 30.74C127.879 30.5225 128.063 30.1963 128.237 29.7613L135.447 14.0378C135.795 13.2766 135.795 12.7112 135.447 12.3415C135.099 11.9718 134.338 11.7869 133.163 11.7869C133.098 11.7869 133.065 11.7217 133.065 11.5912C133.065 11.4607 133.098 11.3955 133.163 11.3955C133.685 11.3955 134.185 11.4172 134.664 11.4607C135.142 11.4825 135.762 11.4933 136.523 11.4933C136.893 11.4933 137.208 11.4933 137.469 11.4933C137.73 11.4716 137.98 11.4499 138.22 11.4281C138.481 11.4064 138.785 11.3955 139.133 11.3955C139.176 11.3955 139.198 11.4607 139.198 11.5912C139.198 11.7217 139.176 11.7869 139.133 11.7869C138.568 11.7869 138.024 11.9935 137.502 12.4067C137.002 12.8199 136.567 13.418 136.197 14.2009L128.922 29.957C128.596 30.6747 128.194 31.2293 127.715 31.6207C127.259 31.9904 126.672 32.1753 125.954 32.1753ZM129.575 27.7388L122.202 14.1031C121.767 13.2766 121.354 12.6895 120.963 12.3415C120.593 11.9718 120.06 11.7869 119.364 11.7869C119.321 11.7869 119.299 11.7217 119.299 11.5912C119.299 11.4607 119.321 11.3955 119.364 11.3955C119.691 11.3955 119.995 11.4064 120.278 11.4281C120.582 11.4499 120.898 11.4716 121.224 11.4933C121.572 11.4933 121.941 11.4933 122.333 11.4933C122.964 11.4933 123.507 11.4933 123.964 11.4933C124.442 11.4716 124.856 11.4499 125.204 11.4281C125.573 11.4064 125.91 11.3955 126.215 11.3955C126.28 11.3955 126.313 11.4607 126.313 11.5912C126.313 11.7217 126.28 11.7869 126.215 11.7869C125.388 11.7869 124.769 11.9392 124.355 12.2436C123.942 12.5481 123.942 13.0592 124.355 13.7768L130.684 25.39L129.575 27.7388Z" fill="#322828"></path><path d="M160.478 31.3924C160.674 31.3924 160.782 31.4141 160.804 31.4576C160.848 31.4794 160.869 31.5881 160.869 31.7838C160.869 32.0883 160.837 32.4145 160.772 32.7625C160.728 33.1322 160.685 33.6541 160.641 34.3283C160.598 35.0025 160.576 35.9594 160.576 37.199C160.576 37.286 160.511 37.3295 160.38 37.3295C160.25 37.3295 160.184 37.286 160.184 37.199C160.184 35.3504 159.771 33.9803 158.945 33.0887C158.14 32.2188 156.803 31.7838 154.932 31.7838H144.722C143.874 31.7838 143.113 31.9361 142.438 32.2405C141.786 32.5667 141.275 33.1213 140.905 33.9042C140.535 34.7089 140.351 35.8071 140.351 37.199C140.351 37.286 140.285 37.3295 140.155 37.3295C140.024 37.3295 139.959 37.286 139.959 37.199C139.959 36.2856 139.937 35.5353 139.894 34.9481C139.872 34.3609 139.829 33.8825 139.763 33.5128C139.72 33.1431 139.676 32.8277 139.633 32.5667C139.611 32.3058 139.6 32.0339 139.6 31.7512C139.6 31.5772 139.611 31.4685 139.633 31.425C139.676 31.3815 139.774 31.3598 139.927 31.3598C140.862 31.3598 141.688 31.0553 142.406 30.4464C143.145 29.8157 143.798 28.9893 144.363 27.9671C144.95 26.945 145.45 25.8141 145.864 24.5745C146.299 23.3349 146.647 22.0844 146.908 20.8231C147.169 19.54 147.364 18.3438 147.495 17.2347C147.625 16.1038 147.69 15.1578 147.69 14.3966C147.69 13.8747 147.625 13.418 147.495 13.0266C147.364 12.6351 147.06 12.3306 146.581 12.1132C146.125 11.8957 145.385 11.7869 144.363 11.7869C144.32 11.7869 144.298 11.7217 144.298 11.5912C144.298 11.4607 144.32 11.3955 144.363 11.3955C144.494 11.3955 144.852 11.3955 145.44 11.3955C146.048 11.3955 146.81 11.3955 147.723 11.3955C148.636 11.3955 149.615 11.3955 150.659 11.3955C151.725 11.3955 152.779 11.3955 153.823 11.3955C154.867 11.3955 155.835 11.3955 156.727 11.3955C157.618 11.3955 158.347 11.3955 158.912 11.3955C159.478 11.3955 159.804 11.3955 159.891 11.3955C159.934 11.3955 159.956 11.4607 159.956 11.5912C159.956 11.7217 159.934 11.7869 159.891 11.7869C159.086 11.7869 158.477 11.8522 158.064 11.9827C157.651 12.0914 157.379 12.3089 157.248 12.6351C157.118 12.9396 157.053 13.4071 157.053 14.0378V29.1415C157.053 29.6852 157.064 30.1201 157.085 30.4464C157.129 30.7508 157.249 30.9683 157.444 31.0988C157.64 31.2293 157.966 31.3163 158.423 31.3598C158.901 31.3815 159.586 31.3924 160.478 31.3924ZM154.932 29.0763V14.1031C154.932 13.4289 154.889 12.9613 154.802 12.7003C154.737 12.4176 154.53 12.2545 154.182 12.211C153.834 12.1458 153.236 12.1132 152.388 12.1132H150.789C150.159 12.1132 149.702 12.211 149.419 12.4067C149.137 12.6025 148.952 12.9722 148.865 13.5159C148.778 14.0596 148.691 14.8642 148.604 15.9299C148.56 16.3213 148.484 16.9194 148.375 17.724C148.267 18.5287 148.104 19.4421 147.886 20.4642C147.69 21.4864 147.44 22.5629 147.136 23.6937C146.831 24.8029 146.473 25.8794 146.059 26.9233C145.646 27.9671 145.168 28.8914 144.624 29.6961C144.08 30.479 143.461 31.077 142.765 31.4902V31.0662H152.225C153.116 31.0662 153.747 31.0335 154.117 30.9683C154.508 30.9031 154.737 30.74 154.802 30.479C154.889 30.1963 154.932 29.7287 154.932 29.0763Z" fill="#322828"></path><path d="M167.109 29.4351L166.554 28.9132L180.908 13.6137L181.43 14.1031L167.109 29.4351ZM162.868 31.7838C162.825 31.7838 162.803 31.7186 162.803 31.5881C162.803 31.4576 162.825 31.3924 162.868 31.3924C163.673 31.3924 164.282 31.338 164.695 31.2293C165.108 31.1205 165.38 30.9031 165.51 30.5768C165.663 30.2506 165.739 29.7722 165.739 29.1415V14.0378C165.739 13.4071 165.663 12.9396 165.51 12.6351C165.38 12.3089 165.108 12.0914 164.695 11.9827C164.303 11.8522 163.705 11.7869 162.901 11.7869C162.857 11.7869 162.835 11.7217 162.835 11.5912C162.835 11.4607 162.857 11.3955 162.901 11.3955C163.423 11.3955 164.01 11.4172 164.662 11.4607C165.336 11.4825 166.032 11.4933 166.75 11.4933C167.555 11.4933 168.283 11.4825 168.936 11.4607C169.588 11.4172 170.175 11.3955 170.697 11.3955C170.741 11.3955 170.762 11.4607 170.762 11.5912C170.762 11.7217 170.741 11.7869 170.697 11.7869C169.893 11.7869 169.284 11.8522 168.87 11.9827C168.457 12.1132 168.174 12.3415 168.022 12.6677C167.892 12.9939 167.826 13.4724 167.826 14.1031V29.1415C167.826 29.7722 167.892 30.2506 168.022 30.5768C168.153 30.9031 168.425 31.1205 168.838 31.2293C169.273 31.338 169.893 31.3924 170.697 31.3924C170.741 31.3924 170.762 31.4576 170.762 31.5881C170.762 31.7186 170.741 31.7838 170.697 31.7838C170.153 31.7838 169.555 31.773 168.903 31.7512C168.272 31.7295 167.555 31.7186 166.75 31.7186C166.032 31.7186 165.336 31.7295 164.662 31.7512C163.988 31.773 163.39 31.7838 162.868 31.7838ZM177.091 31.7838C177.047 31.7838 177.026 31.7186 177.026 31.5881C177.026 31.4576 177.047 31.3924 177.091 31.3924C177.939 31.3924 178.559 31.338 178.95 31.2293C179.364 31.1205 179.635 30.9031 179.766 30.5768C179.896 30.2506 179.962 29.7722 179.962 29.1415V14.1031C179.962 13.4724 179.896 12.9939 179.766 12.6677C179.635 12.3415 179.364 12.1132 178.95 11.9827C178.559 11.8522 177.939 11.7869 177.091 11.7869C177.047 11.7869 177.026 11.7217 177.026 11.5912C177.026 11.4607 177.047 11.3955 177.091 11.3955C177.635 11.3955 178.222 11.4172 178.853 11.4607C179.505 11.4825 180.233 11.4933 181.038 11.4933C181.756 11.4933 182.452 11.4825 183.126 11.4607C183.8 11.4172 184.398 11.3955 184.92 11.3955C184.964 11.3955 184.985 11.4607 184.985 11.5912C184.985 11.7217 184.964 11.7869 184.92 11.7869C184.115 11.7869 183.506 11.8522 183.093 11.9827C182.68 12.0914 182.408 12.3089 182.278 12.6351C182.147 12.9396 182.082 13.4071 182.082 14.0378V29.1415C182.082 29.7722 182.147 30.2506 182.278 30.5768C182.408 30.9031 182.68 31.1205 183.093 31.2293C183.506 31.338 184.115 31.3924 184.92 31.3924C184.964 31.3924 184.985 31.4576 184.985 31.5881C184.985 31.7186 184.964 31.7838 184.92 31.7838C184.398 31.7838 183.8 31.773 183.126 31.7512C182.452 31.7295 181.756 31.7186 181.038 31.7186C180.233 31.7186 179.505 31.7295 178.853 31.7512C178.222 31.773 177.635 31.7838 177.091 31.7838Z" fill="#322828"></path><path d="M204.299 31.3924C204.343 31.3924 204.365 31.4576 204.365 31.5881C204.365 31.7186 204.343 31.7838 204.299 31.7838C203.756 31.7838 203.147 31.773 202.473 31.7512C201.82 31.7295 201.135 31.7186 200.418 31.7186C199.656 31.7186 198.95 31.7295 198.297 31.7512C197.666 31.773 197.079 31.7838 196.536 31.7838C196.492 31.7838 196.47 31.7186 196.47 31.5881C196.47 31.4576 196.492 31.3924 196.536 31.3924C197.362 31.3924 197.971 31.338 198.362 31.2293C198.754 31.1205 199.015 30.9031 199.145 30.5768C199.276 30.2506 199.341 29.7722 199.341 29.1415V21.0514L199.928 21.2145C199.319 21.2145 198.776 21.2689 198.297 21.3776C197.819 21.4864 197.351 21.7147 196.894 22.0627C196.459 22.3889 195.992 22.8891 195.492 23.5633C194.992 24.2374 194.404 25.1508 193.73 26.3034C192.904 27.7605 192.23 28.8697 191.708 29.6308C191.207 30.392 190.805 30.9248 190.501 31.2293C190.218 31.5337 189.979 31.7077 189.783 31.7512C189.609 31.773 189.424 31.7838 189.228 31.7838H185.868C185.803 31.7838 185.771 31.7186 185.771 31.5881C185.771 31.4576 185.803 31.3924 185.868 31.3924C186.695 31.3706 187.412 31.1532 188.021 30.74C188.63 30.305 189.228 29.6634 189.816 28.8153C190.425 27.9671 191.088 26.9124 191.805 25.651C192.458 24.4984 193.067 23.6067 193.632 22.9761C194.198 22.3236 194.796 21.8561 195.426 21.5733C196.079 21.2906 196.797 21.1167 197.579 21.0514L197.808 21.2798C195.459 21.258 193.687 20.8013 192.491 19.9097C191.294 19.018 190.696 17.8219 190.696 16.3213C190.696 15.3209 190.946 14.451 191.447 13.7116C191.969 12.9504 192.675 12.3632 193.567 11.95C194.48 11.5151 195.503 11.2976 196.633 11.2976C197.09 11.2976 197.699 11.3302 198.46 11.3955C199.221 11.4607 199.874 11.4933 200.418 11.4933C201.135 11.4933 201.82 11.4825 202.473 11.4607C203.125 11.4172 203.723 11.3955 204.267 11.3955C204.31 11.3955 204.332 11.4607 204.332 11.5912C204.332 11.7217 204.31 11.7869 204.267 11.7869C203.462 11.7869 202.853 11.8522 202.44 11.9827C202.049 12.0914 201.777 12.3089 201.625 12.6351C201.494 12.9396 201.429 13.4071 201.429 14.0378V29.1415C201.429 29.7722 201.494 30.2506 201.625 30.5768C201.777 30.9031 202.059 31.1205 202.473 31.2293C202.886 31.338 203.495 31.3924 204.299 31.3924ZM192.882 15.5058C192.882 17.0281 193.317 18.2895 194.187 19.2899C195.078 20.2685 196.394 20.7578 198.134 20.7578C198.417 20.7578 198.743 20.7469 199.113 20.7252C199.482 20.6817 199.776 20.6273 199.993 20.5621L199.341 20.7904V14.1031C199.341 13.4724 199.2 12.9831 198.917 12.6351C198.656 12.2871 198.308 12.0479 197.873 11.9174C197.46 11.7869 197.036 11.7217 196.601 11.7217C194.122 11.7217 192.882 12.9831 192.882 15.5058Z" fill="#322828"></path><path d="M98.0387 63.3924C98.2344 63.3924 98.3432 63.4141 98.3649 63.4576C98.4084 63.4794 98.4301 63.5881 98.4301 63.7838C98.4301 64.0883 98.3975 64.4145 98.3323 64.7625C98.2888 65.1322 98.2453 65.6541 98.2018 66.3283C98.1583 67.0025 98.1366 67.9594 98.1366 69.199C98.1366 69.286 98.0713 69.3295 97.9408 69.3295C97.8103 69.3295 97.7451 69.286 97.7451 69.199C97.7451 67.3504 97.3319 65.9803 96.5055 65.0887C95.7008 64.2188 94.3633 63.7838 92.4931 63.7838H82.2826C81.4344 63.7838 80.6732 63.9361 79.9991 64.2405C79.3466 64.5667 78.8356 65.1213 78.4659 65.9042C78.0962 66.7089 77.9113 67.8071 77.9113 69.199C77.9113 69.286 77.8461 69.3295 77.7156 69.3295C77.5851 69.3295 77.5198 69.286 77.5198 69.199C77.5198 68.2856 77.4981 67.5353 77.4546 66.9481C77.4329 66.3609 77.3894 65.8825 77.3241 65.5128C77.2806 65.1431 77.2371 64.8277 77.1936 64.5667C77.1719 64.3058 77.161 64.0339 77.161 63.7512C77.161 63.5772 77.1719 63.4685 77.1936 63.425C77.2371 63.3815 77.335 63.3598 77.4872 63.3598C78.4224 63.3598 79.2488 63.0553 79.9664 62.4464C80.7059 61.8157 81.3583 60.9893 81.9237 59.9671C82.5109 58.945 83.0111 57.8141 83.4243 56.5745C83.8593 55.3349 84.2072 54.0844 84.4682 52.8231C84.7292 51.54 84.9249 50.3438 85.0554 49.2347C85.1859 48.1038 85.2511 47.1578 85.2511 46.3966C85.2511 45.8747 85.1859 45.418 85.0554 45.0266C84.9249 44.6351 84.6204 44.3306 84.142 44.1132C83.6853 43.8957 82.9459 43.7869 81.9237 43.7869C81.8802 43.7869 81.8585 43.7217 81.8585 43.5912C81.8585 43.4607 81.8802 43.3955 81.9237 43.3955C82.0542 43.3955 82.4131 43.3955 83.0002 43.3955C83.6092 43.3955 84.3703 43.3955 85.2837 43.3955C86.1971 43.3955 87.1758 43.3955 88.2197 43.3955C89.2853 43.3955 90.34 43.3955 91.3839 43.3955C92.4278 43.3955 93.3956 43.3955 94.2872 43.3955C95.1789 43.3955 95.9074 43.3955 96.4729 43.3955C97.0383 43.3955 97.3645 43.3955 97.4515 43.3955C97.495 43.3955 97.5167 43.4607 97.5167 43.5912C97.5167 43.7217 97.495 43.7869 97.4515 43.7869C96.6468 43.7869 96.0379 43.8522 95.6247 43.9827C95.2115 44.0914 94.9397 44.3089 94.8092 44.6351C94.6787 44.9396 94.6134 45.4071 94.6134 46.0378V61.1415C94.6134 61.6852 94.6243 62.1201 94.6461 62.4464C94.6896 62.7508 94.8092 62.9683 95.0049 63.0988C95.2006 63.2293 95.5268 63.3163 95.9835 63.3598C96.462 63.3815 97.147 63.3924 98.0387 63.3924ZM92.4931 61.0763V46.1031C92.4931 45.4289 92.4496 44.9613 92.3626 44.7003C92.2973 44.4176 92.0907 44.2545 91.7428 44.211C91.3948 44.1458 90.7967 44.1132 89.9486 44.1132H88.3501C87.7195 44.1132 87.2628 44.211 86.98 44.4067C86.6973 44.6025 86.5125 44.9722 86.4255 45.5159C86.3385 46.0596 86.2515 46.8642 86.1645 47.9299C86.121 48.3213 86.0449 48.9194 85.9362 49.724C85.8274 50.5287 85.6643 51.4421 85.4468 52.4642C85.2511 53.4864 85.001 54.5629 84.6965 55.6937C84.3921 56.8029 84.0332 57.8794 83.62 58.9233C83.2068 59.9671 82.7284 60.8914 82.1847 61.6961C81.641 62.479 81.0212 63.077 80.3253 63.4902V63.0662H89.7855C90.6771 63.0662 91.3078 63.0335 91.6775 62.9683C92.069 62.9031 92.2973 62.74 92.3626 62.479C92.4496 62.1963 92.4931 61.7287 92.4931 61.0763Z" fill="#322828"></path><path d="M114.358 63.7838H100.69C100.646 63.7838 100.624 63.7186 100.624 63.5881C100.624 63.4576 100.646 63.3924 100.69 63.3924C101.494 63.3924 102.092 63.338 102.484 63.2293C102.875 63.1205 103.136 62.9031 103.267 62.5768C103.419 62.2506 103.495 61.7722 103.495 61.1415V46.0378C103.495 45.4071 103.419 44.9396 103.267 44.6351C103.136 44.3089 102.875 44.0914 102.484 43.9827C102.092 43.8522 101.494 43.7869 100.69 43.7869C100.646 43.7869 100.624 43.7217 100.624 43.5912C100.624 43.4607 100.646 43.3955 100.69 43.3955H113.803C113.999 43.3955 114.097 43.4933 114.097 43.6891L114.162 47.7015C114.162 47.7667 114.097 47.8102 113.967 47.832C113.858 47.832 113.803 47.7994 113.803 47.7341C113.738 46.5598 113.379 45.6572 112.727 45.0266C112.096 44.3959 111.27 44.0805 110.248 44.0805H108.258C107.518 44.0805 106.953 44.1349 106.562 44.2436C106.192 44.3524 105.931 44.559 105.779 44.8634C105.648 45.1679 105.583 45.6137 105.583 46.2009V61.011C105.583 61.5765 105.648 62.0114 105.779 62.3159C105.931 62.6203 106.181 62.8269 106.529 62.9357C106.899 63.0444 107.442 63.0988 108.16 63.0988H110.77C111.814 63.0988 112.683 62.7291 113.379 61.9897C114.097 61.2285 114.565 60.2064 114.782 58.9233C114.782 58.858 114.847 58.8363 114.978 58.858C115.108 58.8798 115.174 58.9233 115.174 58.9885C115.087 59.5539 115.01 60.239 114.945 61.0436C114.902 61.8483 114.88 62.5986 114.88 63.2945C114.88 63.6207 114.706 63.7838 114.358 63.7838ZM112.531 56.1831C112.531 55.2262 112.292 54.5411 111.814 54.1279C111.357 53.7147 110.585 53.5081 109.497 53.5081H104.604V52.8231H109.595C110.639 52.8231 111.379 52.6491 111.814 52.3011C112.27 51.9314 112.499 51.3442 112.499 50.5396C112.499 50.4961 112.564 50.4743 112.694 50.4743C112.825 50.4743 112.89 50.4961 112.89 50.5396C112.89 51.192 112.879 51.7031 112.857 52.0728C112.857 52.4207 112.857 52.7904 112.857 53.1819C112.857 53.6821 112.868 54.1714 112.89 54.6499C112.912 55.1283 112.923 55.6394 112.923 56.1831C112.923 56.2266 112.857 56.2483 112.727 56.2483C112.596 56.2483 112.531 56.2266 112.531 56.1831Z" fill="#322828"></path><path d="M133.837 63.7838C133.641 63.7838 133.456 63.7512 133.282 63.686C133.108 63.6207 132.88 63.425 132.597 63.0988C132.314 62.7726 131.901 62.2398 131.357 61.5003C130.814 60.7392 130.063 59.6735 129.106 58.3034C128.432 57.3248 127.856 56.5201 127.378 55.8895C126.921 55.2588 126.497 54.7803 126.105 54.4541C125.736 54.1062 125.333 53.8669 124.898 53.7365C124.463 53.5842 123.931 53.5081 123.3 53.5081C123.082 53.5081 122.854 53.519 122.615 53.5407C122.376 53.5625 122.136 53.5842 121.897 53.606L121.865 53.0188C123.235 52.9535 124.3 52.9209 125.061 52.9209C125.779 52.9209 126.366 52.9862 126.823 53.1166C127.301 53.2254 127.725 53.4537 128.095 53.8017C128.487 54.1279 128.911 54.6064 129.367 55.237C129.846 55.846 130.444 56.6506 131.162 57.651C132.032 58.8689 132.804 59.9019 133.478 60.75C134.174 61.5982 134.87 62.2506 135.565 62.7073C136.261 63.1423 137.055 63.3706 137.947 63.3924C137.99 63.3924 138.012 63.4576 138.012 63.5881C138.012 63.7186 137.99 63.7838 137.947 63.7838H133.837ZM117.917 63.7838C117.874 63.7838 117.852 63.7186 117.852 63.5881C117.852 63.4576 117.874 63.3924 117.917 63.3924C118.722 63.3924 119.331 63.338 119.744 63.2293C120.157 63.1205 120.429 62.9031 120.56 62.5768C120.69 62.2506 120.755 61.7722 120.755 61.1415V46.0378C120.755 45.4071 120.69 44.9396 120.56 44.6351C120.429 44.3089 120.157 44.0914 119.744 43.9827C119.353 43.8522 118.755 43.7869 117.95 43.7869C117.906 43.7869 117.885 43.7217 117.885 43.5912C117.885 43.4607 117.906 43.3955 117.95 43.3955C118.472 43.3955 119.059 43.4172 119.712 43.4607C120.364 43.4825 121.049 43.4933 121.767 43.4933C122.55 43.4933 123.267 43.4825 123.92 43.4607C124.594 43.4172 125.192 43.3955 125.714 43.3955C125.757 43.3955 125.779 43.4607 125.779 43.5912C125.779 43.7217 125.757 43.7869 125.714 43.7869C124.909 43.7869 124.3 43.8522 123.887 43.9827C123.496 44.1132 123.224 44.3415 123.072 44.6677C122.941 44.9939 122.876 45.4724 122.876 46.1031V61.1415C122.876 61.7722 122.941 62.2506 123.072 62.5768C123.202 62.9031 123.474 63.1205 123.887 63.2293C124.3 63.338 124.909 63.3924 125.714 63.3924C125.757 63.3924 125.779 63.4576 125.779 63.5881C125.779 63.7186 125.757 63.7838 125.714 63.7838C125.17 63.7838 124.572 63.773 123.92 63.7512C123.267 63.7295 122.55 63.7186 121.767 63.7186C121.049 63.7186 120.353 63.7295 119.679 63.7512C119.026 63.773 118.439 63.7838 117.917 63.7838ZM126.105 53.4429L125.518 53.1493L129.628 47.4079C130.651 46.0161 131.14 45.07 131.096 44.5699C131.075 44.0479 130.52 43.7869 129.433 43.7869C129.389 43.7869 129.367 43.7217 129.367 43.5912C129.367 43.4607 129.389 43.3955 129.433 43.3955C129.955 43.3955 130.487 43.4172 131.031 43.4607C131.575 43.4825 132.282 43.4933 133.152 43.4933C134.021 43.4933 134.696 43.4825 135.174 43.4607C135.674 43.4172 136.153 43.3955 136.609 43.3955C136.675 43.3955 136.707 43.4607 136.707 43.5912C136.707 43.7217 136.675 43.7869 136.609 43.7869C135.848 43.7869 135.152 43.9174 134.522 44.1784C133.891 44.4176 133.271 44.8091 132.662 45.3528C132.075 45.8747 131.455 46.5706 130.803 47.4405L126.105 53.4429Z" fill="#322828"></path><path d="M149.04 64.1753C147.475 64.1753 146.05 63.9034 144.767 63.3598C143.506 62.7943 142.418 62.0223 141.505 61.0436C140.613 60.065 139.917 58.945 139.417 57.6836C138.939 56.4005 138.699 55.0413 138.699 53.606C138.699 51.8444 139.037 50.3003 139.711 48.9737C140.407 47.6471 141.32 46.5489 142.451 45.679C143.582 44.7873 144.821 44.124 146.17 43.6891C147.518 43.2541 148.856 43.0366 150.182 43.0366C151.791 43.0366 153.227 43.3302 154.488 43.9174C155.771 44.4829 156.859 45.2549 157.75 46.2335C158.642 47.2122 159.316 48.3213 159.773 49.5609C160.251 50.8005 160.491 52.0728 160.491 53.3776C160.491 54.9 160.186 56.3135 159.577 57.6184C158.968 58.9233 158.131 60.065 157.065 61.0436C156.021 62.0223 154.804 62.7943 153.412 63.3598C152.042 63.9034 150.584 64.1753 149.04 64.1753ZM150.182 63.4902C151.661 63.4902 152.988 63.1423 154.162 62.4464C155.336 61.7287 156.271 60.6848 156.967 59.3147C157.663 57.9446 158.011 56.27 158.011 54.291C158.011 52.2467 157.631 50.4417 156.87 48.8759C156.13 47.2883 155.064 46.0487 153.673 45.157C152.303 44.2436 150.682 43.7869 148.812 43.7869C146.398 43.7869 144.517 44.5699 143.169 46.1357C141.842 47.6798 141.179 49.7893 141.179 52.4642C141.179 54.0083 141.385 55.4545 141.798 56.8029C142.233 58.1295 142.853 59.3038 143.658 60.326C144.463 61.3264 145.419 62.1093 146.529 62.6747C147.638 63.2184 148.856 63.4902 150.182 63.4902Z" fill="#322828"></path><path d="M168.34 61.011C168.34 61.6634 168.427 62.1636 168.601 62.5116C168.775 62.8378 169.145 63.0662 169.71 63.1967C170.276 63.3271 171.113 63.3924 172.222 63.3924C172.287 63.3924 172.32 63.4576 172.32 63.5881C172.32 63.7186 172.287 63.7838 172.222 63.7838C171.526 63.7838 170.765 63.773 169.938 63.7512C169.134 63.7295 168.253 63.7186 167.296 63.7186C166.578 63.7186 165.883 63.7295 165.208 63.7512C164.556 63.773 163.969 63.7838 163.447 63.7838C163.403 63.7838 163.382 63.7186 163.382 63.5881C163.382 63.4576 163.403 63.3924 163.447 63.3924C164.251 63.3924 164.85 63.338 165.241 63.2293C165.632 63.1205 165.893 62.9031 166.024 62.5768C166.154 62.2506 166.22 61.7722 166.22 61.1415V46.0378C166.22 45.4071 166.154 44.9396 166.024 44.6351C165.893 44.3089 165.632 44.0914 165.241 43.9827C164.85 43.8522 164.251 43.7869 163.447 43.7869C163.403 43.7869 163.382 43.7217 163.382 43.5912C163.382 43.4607 163.403 43.3955 163.447 43.3955C163.969 43.3955 164.556 43.4172 165.208 43.4607C165.861 43.4825 166.546 43.4933 167.264 43.4933C167.829 43.4933 168.514 43.4607 169.319 43.3955C170.145 43.3302 170.971 43.2976 171.798 43.2976C173.037 43.2976 174.147 43.4825 175.125 43.8522C176.126 44.2219 176.919 44.7982 177.507 45.5811C178.094 46.364 178.398 47.3862 178.42 48.6475C178.42 49.8001 178.203 50.7897 177.768 51.6161C177.354 52.4425 176.789 53.1275 176.071 53.6712C175.375 54.1932 174.603 54.5846 173.755 54.8456C172.907 55.1066 172.059 55.237 171.211 55.237C170.95 55.237 170.678 55.2262 170.395 55.2044C170.134 55.1827 169.884 55.1392 169.645 55.0739C169.558 55.0522 169.525 54.9761 169.547 54.8456C169.59 54.6933 169.645 54.6281 169.71 54.6499C169.906 54.6933 170.102 54.726 170.297 54.7477C170.515 54.7695 170.711 54.7803 170.884 54.7803C171.776 54.7803 172.613 54.5846 173.396 54.1932C174.179 53.8017 174.81 53.2036 175.288 52.399C175.767 51.5726 176.006 50.5504 176.006 49.3326C176.006 48.1365 175.789 47.1361 175.354 46.3314C174.919 45.505 174.321 44.8743 173.559 44.4394C172.798 44.0044 171.95 43.7869 171.015 43.7869C170.297 43.7869 169.743 43.8304 169.351 43.9174C168.982 43.9827 168.721 44.1784 168.568 44.5046C168.416 44.8308 168.34 45.3636 168.34 46.1031V61.011Z" fill="#322828"></path><path d="M185.304 52.9862L185.793 52.3011H192.513L192.742 52.9862H185.304ZM201.158 63.3924C201.245 63.3924 201.288 63.4576 201.288 63.5881C201.288 63.7186 201.245 63.7838 201.158 63.7838C200.527 63.7838 199.886 63.7621 199.233 63.7186C198.581 63.6751 197.95 63.6534 197.341 63.6534C196.667 63.6534 196.08 63.6751 195.58 63.7186C195.079 63.7621 194.525 63.7838 193.916 63.7838C193.829 63.7838 193.785 63.7186 193.785 63.5881C193.785 63.4576 193.829 63.3924 193.916 63.3924C195.069 63.3924 195.786 63.2293 196.069 62.9031C196.352 62.5551 196.276 61.9135 195.841 60.9784L188.599 45.679L189.414 44.6677L183.086 59.6409C182.542 60.9675 182.509 61.9244 182.988 62.5116C183.466 63.0988 184.412 63.3924 185.826 63.3924C185.935 63.3924 185.989 63.4576 185.989 63.5881C185.989 63.7186 185.935 63.7838 185.826 63.7838C185.173 63.7838 184.575 63.7621 184.032 63.7186C183.488 63.6751 182.803 63.6534 181.977 63.6534C181.194 63.6534 180.563 63.6751 180.084 63.7186C179.628 63.7621 179.062 63.7838 178.388 63.7838C178.301 63.7838 178.258 63.7186 178.258 63.5881C178.258 63.4576 178.301 63.3924 178.388 63.3924C178.975 63.3924 179.486 63.2836 179.921 63.0662C180.356 62.8269 180.759 62.4246 181.128 61.8592C181.52 61.272 181.944 60.4347 182.401 59.3473L189.284 43.1019C189.327 43.0366 189.403 43.004 189.512 43.004C189.621 43.004 189.686 43.0366 189.708 43.1019L197.406 59.3147C197.907 60.3803 198.352 61.2176 198.744 61.8266C199.135 62.4137 199.516 62.8269 199.886 63.0662C200.277 63.2836 200.701 63.3924 201.158 63.3924Z" fill="#322828"></path><path d="M22.5937 38.0541H10.4762V63.4445H35.4495V67.8899H5.21863V5.65356H35.2358V10.1418H10.4762V33.6086H22.5937V38.0541Z" fill="#B7DE82"></path><path d="M43.598 36.4205C43.598 36.7704 43.7401 36.9454 44.0244 36.9454C44.5384 36.9454 45.2218 36.087 46.0747 34.3703C46.1075 34.3047 46.1348 34.2391 46.1567 34.1734C46.1895 34.1078 46.2332 34.0641 46.2879 34.0422C46.3535 34.0204 46.3973 34.0368 46.4191 34.0914C46.441 34.1352 46.4301 34.2117 46.3863 34.3211C45.5116 36.3549 44.6258 37.3718 43.7292 37.3718C43.434 37.3718 43.1989 37.2406 43.0239 36.9782C42.849 36.7157 42.7615 36.4588 42.7615 36.2073C42.7615 35.9449 42.7888 35.7043 42.8435 35.4856C42.2093 36.5353 41.6626 37.1313 41.2033 37.2734C41.0721 37.3281 40.9409 37.3554 40.8097 37.3554C40.6894 37.3554 40.5691 37.339 40.4488 37.3062C39.913 37.1641 39.6451 36.7376 39.6451 36.0269C39.6451 35.5457 39.7654 35.0154 40.006 34.4359C40.2575 33.8454 40.6074 33.2823 41.0557 32.7465C41.504 32.2107 42.0453 31.8498 42.6795 31.6639C42.9091 31.5874 43.177 31.5491 43.4832 31.5491C43.8003 31.5491 44.1502 31.6475 44.5329 31.8444C45.2765 30.4447 45.9107 29.149 46.4355 27.9571C46.5886 27.5963 46.7362 27.3666 46.8784 27.2682C47.0315 27.1589 47.1681 27.1042 47.2884 27.1042C47.4196 27.1042 47.4962 27.1042 47.5181 27.1042C47.5509 27.1042 47.6547 27.1206 47.8297 27.1534C48.0156 27.1753 48.1577 27.1808 48.2561 27.1698C48.0046 27.3994 47.3376 28.5148 46.2551 30.5158C44.8773 33.0745 44.0463 34.7803 43.762 35.6332C43.6527 35.9503 43.598 36.2128 43.598 36.4205ZM44.4017 32.1068C44.2595 31.9647 44.0572 31.8936 43.7948 31.8936C43.5433 31.8936 43.1879 32.0849 42.7287 32.4676C41.9961 33.08 41.3892 33.8345 40.9081 34.7311C40.591 35.3216 40.4324 35.8082 40.4324 36.1909C40.4324 36.3658 40.4652 36.5244 40.5308 36.6665C40.6074 36.8087 40.7222 36.8798 40.8753 36.8798C41.247 36.8798 41.7063 36.4971 42.253 35.7316C42.7998 34.9662 43.516 33.7579 44.4017 32.1068ZM46.8815 34.8459C46.7284 35.2177 46.6518 35.6332 46.6518 36.0925C46.6518 36.3986 46.7174 36.6447 46.8487 36.8306C46.9908 37.0055 47.1876 37.093 47.4391 37.093C48.4342 37.093 49.3363 36.1581 50.1454 34.2883C50.222 34.1133 50.3149 34.0368 50.4243 34.0586C50.468 34.0696 50.4899 34.0969 50.4899 34.1406C50.4899 34.1844 50.3641 34.4741 50.1126 35.0099C49.8721 35.5348 49.626 35.9613 49.3746 36.2893C48.8169 37.0547 48.128 37.4374 47.3079 37.4374C46.8705 37.4374 46.4987 37.2953 46.1926 37.011C45.8864 36.7267 45.7333 36.3385 45.7333 35.8464C45.7333 35.3544 45.8481 34.835 46.0778 34.2883C46.3183 33.7306 46.6409 33.2167 47.0455 32.7465C47.4501 32.2654 47.9148 31.9154 48.4396 31.6968C48.6911 31.5874 48.9317 31.5327 49.1613 31.5327C49.391 31.5327 49.6042 31.5983 49.801 31.7296C49.9869 31.8826 50.0798 32.0521 50.0798 32.238C50.0798 32.8941 49.6862 33.5228 48.8989 34.1242C48.6583 34.3101 48.3194 34.4796 47.882 34.6327C47.4446 34.7749 47.1111 34.8459 46.8815 34.8459ZM49.637 32.2216C49.637 32.0029 49.5495 31.8936 49.3746 31.8936C49.0684 31.8936 48.6037 32.2708 47.9804 33.0253C47.6086 33.4846 47.2806 33.9985 46.9963 34.5671C47.1822 34.5671 47.4501 34.5015 47.8 34.3703C48.1608 34.2391 48.4724 34.0641 48.7349 33.8454C49.3363 33.3315 49.637 32.7902 49.637 32.2216ZM53.2141 33.5994C53.5969 33.1401 53.7882 32.7519 53.7882 32.4348C53.7882 32.1177 53.657 31.9592 53.3946 31.9592C52.8806 31.9592 52.2956 32.4294 51.6396 33.3698C51.4318 33.665 51.2295 34.0532 51.0327 34.5343C50.8359 35.0154 50.7374 35.4528 50.7374 35.8464C50.7374 36.2292 50.814 36.5408 50.9671 36.7814C51.1311 37.0219 51.3771 37.1422 51.7052 37.1422C52.0441 37.1422 52.3558 37.0657 52.6401 36.9126C52.9244 36.7486 53.1923 36.4971 53.4438 36.1581C53.7062 35.8082 53.903 35.5184 54.0342 35.2888C54.1655 35.0592 54.3459 34.7147 54.5755 34.2555C54.652 34.1024 54.7177 34.0422 54.7723 34.075C54.827 34.0969 54.8543 34.1352 54.8543 34.1898C54.8543 34.2336 54.7778 34.414 54.6247 34.7311C54.4826 35.0373 54.3349 35.3271 54.1819 35.6004C54.0397 35.8738 53.8319 36.18 53.5586 36.5189C53.0665 37.1313 52.394 37.4374 51.5411 37.4374C50.9288 37.4374 50.486 37.2898 50.2126 36.9946C49.9502 36.6884 49.8189 36.3385 49.8189 35.9449C49.8189 35.4637 49.9338 34.9389 50.1634 34.3703C50.4039 33.8017 50.6773 33.3096 50.9835 32.8941C51.6177 32.0303 52.3503 31.5983 53.1813 31.5983C53.5859 31.5983 53.8757 31.6968 54.0506 31.8936C54.2365 32.0795 54.3295 32.2982 54.3295 32.5497C54.3295 32.9214 54.1764 33.2385 53.8702 33.501C53.7171 33.6431 53.5859 33.7142 53.4766 33.7142C53.3782 33.7142 53.2907 33.6759 53.2141 33.5994ZM57.442 31.6311C58.2402 31.6311 58.6393 32.1341 58.6393 33.1401C58.6393 33.5994 58.5191 34.0914 58.2785 34.6163C57.9723 35.3271 57.5131 35.9722 56.9007 36.5517C57.0429 36.8251 57.2999 36.9618 57.6716 36.9618C57.9669 36.9618 58.2457 36.8142 58.5081 36.5189C58.8362 36.18 59.0713 35.8847 59.2134 35.6332C59.3556 35.3708 59.4594 35.1794 59.525 35.0592C59.5907 34.9389 59.6727 34.7694 59.7711 34.5507C59.8804 34.3211 59.946 34.1844 59.9679 34.1406C59.9898 34.086 60.028 34.0586 60.0827 34.0586C60.1921 34.0477 60.2467 34.086 60.2467 34.1734C60.2467 34.2063 60.2358 34.2445 60.2139 34.2883L60.1155 34.5179C60.0499 34.671 60.0007 34.7803 59.9679 34.8459C59.9351 34.9115 59.875 35.0318 59.7875 35.2068C59.7109 35.3708 59.6399 35.502 59.5743 35.6004C59.5196 35.6988 59.4376 35.83 59.3282 35.9941C59.2298 36.1581 59.1369 36.2893 59.0494 36.3877C58.9728 36.4861 58.8744 36.5955 58.7542 36.7157C58.6339 36.836 58.5191 36.929 58.4097 36.9946C58.1363 37.1586 57.8794 37.2406 57.6388 37.2406C57.1905 37.2406 56.8406 37.0985 56.5891 36.8142C56.0861 37.1859 55.6214 37.3718 55.1949 37.3718C54.3967 37.3718 53.9976 36.8688 53.9976 35.8628C53.9976 35.4036 54.1179 34.9115 54.3584 34.3867C54.6865 33.6212 55.1457 32.9706 55.7362 32.4348C56.3376 31.899 56.9062 31.6311 57.442 31.6311ZM57.6224 32.1396C57.3272 32.1396 56.9773 32.3364 56.5727 32.7301C56.1681 33.1237 55.8073 33.6595 55.4902 34.3375C55.1075 35.1248 54.9161 35.7699 54.9161 36.2729C54.9161 36.7759 55.1075 37.0274 55.4902 37.0274C55.7635 37.0274 56.0697 36.8798 56.4087 36.5845C56.2337 36.333 56.1462 36.0651 56.1462 35.7808C56.1681 35.3106 56.3595 35.0756 56.7203 35.0756C56.8625 35.0756 56.9773 35.1248 57.0648 35.2232C57.1632 35.3216 57.2124 35.4145 57.2124 35.502C57.2124 35.5785 57.2014 35.6606 57.1796 35.748C57.3655 35.4747 57.5787 35.0865 57.8192 34.5835C58.0926 34.0258 58.2293 33.4791 58.2293 32.9433C58.2293 32.4075 58.027 32.1396 57.6224 32.1396ZM62.1651 30.7946C62.1651 31.2867 61.8535 31.7514 61.2302 32.1888C61.4489 32.1997 61.7387 32.2052 62.0995 32.2052C62.4713 32.2052 62.936 32.1779 63.4937 32.1232C63.5155 32.156 63.5265 32.2435 63.5265 32.3856C63.5265 32.5278 63.4609 32.741 63.3297 33.0253C63.1984 33.2987 63.0782 33.5392 62.9688 33.747C62.8704 33.9438 62.772 34.1352 62.6736 34.3211C62.5861 34.496 62.4822 34.7147 62.3619 34.9771C62.2526 35.2396 62.1597 35.4801 62.0831 35.6988C61.8097 36.5299 61.8535 36.9454 62.2143 36.9454C62.6736 36.9454 63.3515 36.0323 64.2482 34.2063C64.3247 34.0641 64.3848 34.0094 64.4286 34.0422C64.4833 34.075 64.5106 34.1188 64.5106 34.1734C64.5106 34.2172 64.4395 34.3867 64.2974 34.6819C64.1552 34.9662 64.0021 35.2614 63.8381 35.5676C63.6741 35.8738 63.4171 36.2292 63.0672 36.6337C62.6517 37.1367 62.2526 37.3882 61.8699 37.3882C61.4434 37.3882 61.1482 37.1313 60.9842 36.6173C60.9514 36.5189 60.935 36.3713 60.935 36.1745C60.935 35.9777 60.9951 35.7152 61.1154 35.3872C61.2466 35.0592 61.4489 34.66 61.7223 34.1898C61.9956 33.7197 62.1487 33.4463 62.1815 33.3698C62.2143 33.2823 62.2307 33.2003 62.2307 33.1237C62.2307 32.7847 61.7933 32.6043 60.9186 32.5825L60.7217 33.1073C60.0329 34.9115 59.3713 36.1198 58.7371 36.7322C58.6278 36.8306 58.5731 36.7978 58.5731 36.6337C58.5731 36.6009 58.584 36.5627 58.6059 36.5189C59.2182 35.7098 59.7486 34.753 60.1969 33.6486C60.6452 32.5442 60.9568 31.4945 61.1318 30.4994C61.1974 30.1604 61.3505 29.991 61.5911 29.991C61.8316 29.991 62.0066 30.144 62.1159 30.4502C62.1487 30.5486 62.1651 30.6634 62.1651 30.7946Z" fill="#322828"></path><path d="M51.2661 30.848L44.4695 10.458L34.1045 37.9845L23.8604 67.8899H18.3463L41.8987 5.65356H46.8998L56.4342 30.848H51.2661Z" fill="#322828"></path><path d="M39.2023 38.3245V42.7422H55.4484L64.9806 67.8895H70.4519L59.2634 38.3245H39.2023Z" fill="#B7DE82"></path><rect x="1" y="1" width="210.228" height="72.8016" stroke="#322828" stroke-width="2"></rect></svg> 