<?xml version="1.0" encoding="UTF-8"?> <svg xmlns="http://www.w3.org/2000/svg" width="163" height="58" viewBox="0 0 163 58" fill="none"><path d="M3.45386 31.2821H20.2298V34.5386H0V0H19.9831V3.2565H3.45386V15.493H18.7495V18.7495H3.45386V31.2821Z" fill="#4F3434"></path><path d="M35.4403 34.5386L22.7103 0H26.4602L37.2165 29.9499L47.9728 0H51.7228L38.9928 34.5386H35.4403Z" fill="#4F3434"></path><path d="M103.057 0H106.511V34.5386H103.55L84.3074 6.41432V34.5386H80.8535V0H83.814L103.057 28.1243V0Z" fill="#4F3434"></path><path d="M136.1 0V3.2565H125.492V34.5386H122.038V3.2565H111.429V0H136.1Z" fill="#4F3434"></path><path d="M71.7759 3.2565L55 3.2565L55 0L75.2298 1.76854e-06L75.2298 34.5386H55.2467L55.2467 31.2821L71.7759 31.2821V19.0456H56.4802L56.4802 15.7891L71.7759 15.7891L71.7759 3.2565Z" fill="#D8AEA6"></path><path d="M54.9056 38.3966H56.2079V57H54.9056V52.0143C54.1615 53.6514 53.0329 54.966 51.5198 55.9582C50.0068 56.9256 48.3076 57.4093 46.4225 57.4093C43.7436 57.4093 41.4616 56.4791 39.5764 54.6188C37.6913 52.7336 36.7487 50.4268 36.7487 47.6983C36.7487 44.9698 37.6913 42.6754 39.5764 40.815C41.4616 38.9299 43.7436 37.9873 46.4225 37.9873C48.3076 37.9873 50.0068 38.4834 51.5198 39.4756C53.0329 40.443 54.1615 41.7452 54.9056 43.3823V38.3966ZM40.4694 53.7258C42.1065 55.3381 44.1033 56.1442 46.4597 56.1442C48.8161 56.1442 50.8129 55.3381 52.45 53.7258C54.0871 52.0887 54.9056 50.0795 54.9056 47.6983C54.9056 45.3171 54.0871 43.3203 52.45 41.708C50.8129 40.0709 48.8161 39.2523 46.4597 39.2523C44.1033 39.2523 42.1065 40.0709 40.4694 41.708C38.8571 43.3203 38.051 45.3171 38.051 47.6983C38.051 50.0795 38.8571 52.0887 40.4694 53.7258ZM63.7356 42.601C64.2813 41.0879 65.1494 39.9717 66.3401 39.2523C67.5307 38.5082 68.8453 38.1361 70.284 38.1361V39.4012C68.4484 39.4012 66.8982 40.0337 65.6331 41.2987C64.3681 42.5389 63.7356 44.3249 63.7356 46.6565V57H62.3961V38.3966H63.7356V42.601ZM81.3722 37.9873C84.1007 37.9873 86.3083 38.9547 87.995 40.8894C89.7065 42.8242 90.5623 45.1186 90.5623 47.7727C90.5623 48.0704 90.5499 48.2812 90.5251 48.4052H73.2239C73.3727 50.712 74.2285 52.5848 75.7912 54.0235C77.3539 55.4373 79.2762 56.1442 81.5582 56.1442C83.1209 56.1442 84.4976 55.8218 85.6882 55.1769C86.9036 54.5071 87.809 53.6266 88.4043 52.5352L89.5577 53.2049C88.8136 54.4947 87.7346 55.5241 86.3207 56.2931C84.9316 57.0372 83.3442 57.4093 81.5582 57.4093C78.7305 57.4093 76.4113 56.5039 74.6006 54.6932C72.7898 52.8576 71.8845 50.526 71.8845 47.6983C71.8845 44.945 72.7774 42.6382 74.5633 40.7778C76.3493 38.9175 78.6189 37.9873 81.3722 37.9873ZM81.3722 39.2523C79.0902 39.2523 77.1802 39.9965 75.6423 41.4848C74.1293 42.9482 73.3107 44.8458 73.1867 47.1774H89.2228C89.0492 44.7714 88.2182 42.849 86.73 41.4103C85.2665 39.9717 83.4806 39.2523 81.3722 39.2523ZM103.687 37.9873C105.845 37.9873 107.569 38.657 108.859 39.9965C110.173 41.3359 110.831 43.1095 110.831 45.3171V57H109.528V45.3171C109.528 43.5063 108.995 42.0429 107.929 40.9267C106.862 39.8104 105.411 39.2523 103.575 39.2523C101.541 39.2523 99.8795 39.9469 98.5896 41.3359C97.2998 42.725 96.6549 44.6473 96.6549 47.103V57H95.3154V38.3966H96.6549V42.5265C97.2998 41.0135 98.23 39.8849 99.4454 39.1407C100.686 38.3718 102.099 37.9873 103.687 37.9873ZM133.279 30.9552H134.618V57H133.279V52.0515C132.51 53.6886 131.381 54.9908 129.893 55.9582C128.405 56.9256 126.706 57.4093 124.796 57.4093C122.117 57.4093 119.835 56.4791 117.95 54.6188C116.065 52.7336 115.122 50.4268 115.122 47.6983C115.122 44.9698 116.065 42.6754 117.95 40.815C119.835 38.9299 122.117 37.9873 124.796 37.9873C126.706 37.9873 128.405 38.471 129.893 39.4384C131.381 40.4058 132.51 41.708 133.279 43.3451V30.9552ZM118.88 53.7258C120.517 55.3381 122.514 56.1442 124.87 56.1442C127.227 56.1442 129.211 55.3381 130.823 53.7258C132.46 52.0887 133.279 50.0795 133.279 47.6983C133.279 45.3171 132.46 43.3203 130.823 41.708C129.211 40.0709 127.227 39.2523 124.87 39.2523C122.514 39.2523 120.517 40.0709 118.88 41.708C117.268 43.3203 116.461 45.3171 116.461 47.6983C116.461 50.0795 117.268 52.0887 118.88 53.7258ZM157.624 38.3966H158.926V57H157.624V52.0143C156.88 53.6514 155.751 54.966 154.238 55.9582C152.725 56.9256 151.026 57.4093 149.141 57.4093C146.462 57.4093 144.18 56.4791 142.295 54.6188C140.41 52.7336 139.467 50.4268 139.467 47.6983C139.467 44.9698 140.41 42.6754 142.295 40.815C144.18 38.9299 146.462 37.9873 149.141 37.9873C151.026 37.9873 152.725 38.4834 154.238 39.4756C155.751 40.443 156.88 41.7452 157.624 43.3823V38.3966ZM143.188 53.7258C144.825 55.3381 146.822 56.1442 149.178 56.1442C151.535 56.1442 153.531 55.3381 155.168 53.7258C156.806 52.0887 157.624 50.0795 157.624 47.6983C157.624 45.3171 156.806 43.3203 155.168 41.708C153.531 40.0709 151.535 39.2523 149.178 39.2523C146.822 39.2523 144.825 40.0709 143.188 41.708C141.576 43.3203 140.769 45.3171 140.769 47.6983C140.769 50.0795 141.576 52.0887 143.188 53.7258Z" fill="#322828"></path></svg> 