<?xml version="1.0" encoding="UTF-8"?> <svg xmlns="http://www.w3.org/2000/svg" width="19" height="15" viewBox="0 0 19 15" fill="none"><path d="M18.0747 0.312296C17.9992 0.110403 17.9237 0.0599364 17.823 0.0346998C17.5461 -0.0662465 17.1183 0.0851761 17.1183 0.0851761C17.1183 0.0851761 1.23753 5.78864 0.331494 6.41956C0.130153 6.54574 0.0798187 6.64669 0.0294835 6.7224C-0.121522 7.17666 0.356663 7.37854 0.356663 7.37854L4.45898 8.71608C4.45898 8.71608 4.60999 8.74132 4.66033 8.71608C5.59153 8.13564 14.0227 2.78549 14.5009 2.60884C14.5764 2.5836 14.6267 2.60882 14.6267 2.6593C14.4254 3.34068 7.10158 9.87697 7.10158 9.87697C7.10158 9.87697 7.07642 9.90221 7.05125 9.95268L6.67374 14.0158C6.67374 14.0158 6.52273 15.2524 7.75594 14.0158C8.63681 13.1325 9.49251 12.4006 9.89519 12.0473C11.3046 13.0315 12.8146 14.0915 13.469 14.6719C13.7962 14.9495 14.073 15 14.2995 15C14.9287 14.9748 15.1049 14.2934 15.1049 14.2934C15.1049 14.2934 17.9992 2.60883 18.0998 1.04416C18.0998 0.892744 18.125 0.791792 18.125 0.690845C18.125 0.514189 18.0998 0.388006 18.0747 0.312296Z" fill="#EEE8E8"></path></svg> 