<?xml version="1.0" encoding="UTF-8"?> <svg xmlns="http://www.w3.org/2000/svg" width="23" height="14" viewBox="0 0 23 14" fill="none"><path fill-rule="evenodd" clip-rule="evenodd" d="M22.1465 0.947988C22.3041 0.401536 22.1465 0 21.3966 0H18.9169C18.2864 0 17.9957 0.346868 17.8381 0.729363C17.8381 0.729363 16.577 3.92607 14.7906 6.00254C14.2126 6.60361 13.9499 6.79486 13.6346 6.79486C13.477 6.79486 13.2489 6.60361 13.2489 6.0572V0.94799C13.2489 0.292247 13.0659 0 12.5404 0H8.64368C8.24966 0 8.0127 0.304346 8.0127 0.592784C8.0127 1.21441 8.90586 1.35777 8.99793 3.10641V6.90419C8.99793 7.73684 8.85334 7.8878 8.53808 7.8878C7.69744 7.8878 5.65257 4.67682 4.43977 1.00261C4.20209 0.288474 3.9637 0 3.32995 0H0.850205C0.141707 0 0 0.346868 0 0.729363C0 1.41244 0.840688 4.80039 3.91438 9.2812C5.9635 12.3412 8.85056 14 11.4777 14C13.0539 14 13.2489 13.6316 13.2489 12.997V10.6842C13.2489 9.94737 13.3982 9.80032 13.8974 9.80032C14.2652 9.80032 14.8957 9.99156 16.3669 11.467C18.0482 13.2156 18.3254 14 19.2711 14H21.7509C22.4594 14 22.8136 13.6316 22.6093 12.9045C22.3856 12.1799 21.5829 11.1286 20.5177 9.88227C19.9397 9.17191 19.0728 8.40692 18.8101 8.02434C18.4423 7.5326 18.5474 7.31397 18.8101 6.87686C18.8101 6.87686 21.8313 2.45067 22.1465 0.947988Z" fill="#EEE8E8"></path></svg> 