<?xml version="1.0" encoding="UTF-8"?> <svg xmlns="http://www.w3.org/2000/svg" width="24" height="24" viewBox="0 0 24 24" fill="none"><path fill-rule="evenodd" clip-rule="evenodd" d="M20.0332 3.80547C17.9081 1.68052 15.1009 0.526234 12.0838 0.5C5.8922 0.5 0.854949 5.5369 0.854949 11.7281C0.854949 13.6956 1.37965 15.6369 2.35037 17.3421L0.75 23.1661L6.70551 21.592C8.35836 22.484 10.1949 22.9562 12.0838 22.9562C18.2755 22.9562 23.3127 17.9193 23.3127 11.7281C23.3127 8.73744 22.1321 5.93041 20.0332 3.80547ZM17.1146 14.0154C16.826 13.8843 15.4618 13.2022 15.1994 13.0972C14.9371 12.9923 14.7534 12.9661 14.5698 13.2284C14.3861 13.517 13.8352 14.1466 13.6778 14.3302C13.5203 14.5139 13.3629 14.5401 13.0743 14.4089C12.7857 14.2778 11.8937 13.963 10.8181 13.0185C9.97853 12.284 9.42758 11.3658 9.24393 11.0772C9.08651 10.7887 9.21769 10.6575 9.37511 10.5001C9.50628 10.3689 9.66369 10.1853 9.79487 10.0016C9.92605 9.84424 9.97853 9.71307 10.0835 9.52944C10.1884 9.3458 10.1359 9.1884 10.0572 9.03099C9.97852 8.89982 9.42758 7.50943 9.19145 6.95852C8.95533 6.40761 8.7192 6.48631 8.56179 6.48631C8.40438 6.48631 8.22073 6.48631 8.01085 6.48631C7.8272 6.48631 7.51236 6.56501 7.25001 6.82735C6.98765 7.11592 6.2793 7.798 6.2793 9.16216C6.2793 10.5526 7.27624 11.8905 7.43366 12.0741C7.56484 12.2578 9.40133 15.091 12.2348 16.324C12.9169 16.6126 13.4154 16.7962 13.8352 16.9274C14.5173 17.1373 15.1207 17.111 15.593 17.0323C16.1439 16.9536 17.2458 16.3502 17.4819 15.6944C17.7181 15.0386 17.7181 14.4876 17.6394 14.3565C17.5869 14.2253 17.4032 14.1466 17.1146 14.0154Z" fill="#EEE8E8"></path></svg> 